<?xml version="1.0" standalone="no"?>
<!DOCTYPE svg PUBLIC "-//W3C//DTD SVG 20010904//EN"
 "http://www.w3.org/TR/2001/REC-SVG-20010904/DTD/svg10.dtd">
<svg version="1.0" xmlns="http://www.w3.org/2000/svg"
 width="1270.000000pt" height="1280.000000pt" viewBox="0 0 1270.000000 1280.000000"
 preserveAspectRatio="xMidYMid meet">
<metadata>
Created by potrace 1.15, written by Peter Selinger 2001-2017
</metadata>
<g transform="translate(0.000000,1280.000000) scale(0.100000,-0.100000)"
fill="#000000" stroke="none">
<path d="M10190 12785 c-148 -30 -377 -130 -458 -200 -23 -21 -61 -65 -84 -99
-51 -76 -85 -114 -120 -132 -14 -7 -81 -19 -148 -25 l-121 -11 -67 54 c-112
91 -176 120 -385 175 -86 22 -124 27 -237 27 l-135 1 -52 -33 c-68 -44 -166
-150 -199 -215 -57 -112 -249 -293 -369 -348 -123 -55 -243 -205 -315 -391
-30 -76 -39 -148 -20 -148 14 0 29 33 60 131 34 109 92 209 168 288 45 48 67
63 106 73 33 8 62 25 85 49 20 19 57 47 82 62 59 33 162 152 228 260 54 90
131 168 209 215 43 24 55 27 134 25 190 -4 397 -60 546 -148 64 -37 279 -231
296 -267 7 -13 3 -40 -11 -86 -21 -68 -120 -536 -147 -692 -40 -233 -56 -493
-33 -517 17 -16 24 25 30 165 6 167 39 390 103 702 89 435 137 545 341 775
102 115 143 143 310 208 149 59 226 77 333 77 197 0 328 -65 424 -208 48 -72
86 -113 86 -93 0 22 -130 199 -168 229 -120 95 -301 132 -472 97z m-710 -480
c0 -18 -44 -116 -57 -126 -13 -12 -23 -6 -69 44 -30 32 -54 62 -54 67 0 5 10
11 23 13 31 6 157 8 157 2z"/>
<path d="M10895 12467 c-19 -15 -18 -15 15 -21 19 -3 64 -8 100 -11 74 -7 135
-32 166 -66 35 -39 139 -200 172 -264 56 -112 74 -188 79 -335 6 -155 -8 -243
-56 -365 -73 -183 -147 -259 -437 -453 -109 -73 -133 -94 -240 -218 -178 -206
-217 -242 -379 -349 -81 -54 -165 -113 -185 -131 -47 -42 -110 -71 -176 -79
-58 -8 -69 0 -59 44 5 22 13 30 36 33 24 4 29 1 29 -16 0 -14 3 -17 10 -10 15
15 32 182 21 202 -16 29 -32 -31 -24 -95 3 -32 2 -54 -3 -52 -61 29 -61 29
-68 98 -9 92 -31 152 -71 197 l-35 39 30 -66 c37 -81 60 -182 60 -271 0 -81
-12 -115 -46 -130 -36 -16 -44 0 -44 91 0 64 2 72 15 61 8 -7 15 -21 15 -31 0
-33 19 -21 26 17 9 47 -2 123 -27 189 -19 50 -112 205 -124 205 -2 0 7 -26 21
-57 77 -171 96 -234 75 -247 -14 -9 -26 13 -46 82 -10 35 -21 65 -25 67 -3 2
-6 -22 -6 -53 1 -31 -3 -64 -7 -73 -5 -10 1 -24 17 -42 14 -15 28 -44 31 -65
4 -20 9 -49 11 -64 3 -14 0 -44 -5 -66 -10 -34 -21 -45 -93 -91 -75 -47 -84
-50 -93 -34 -5 10 -29 37 -51 60 -47 49 -86 56 -123 22 -27 -26 -23 -33 13
-19 15 5 34 10 41 10 13 0 75 -58 75 -71 0 -3 -11 -12 -25 -19 -14 -7 -25 -21
-25 -30 0 -28 -25 -41 -87 -46 -32 -2 -79 -6 -105 -9 -44 -4 -48 -2 -48 18 0
13 -5 28 -12 35 -9 9 -5 19 17 42 33 35 13 43 -26 11 -21 -16 -23 -26 -21 -85
2 -53 -2 -74 -19 -104 -16 -27 -20 -46 -15 -65 11 -45 109 -133 195 -177 44
-22 82 -44 85 -49 3 -5 -4 -20 -15 -35 -49 -62 -142 -9 -263 149 -38 50 -44
31 -11 -34 31 -62 20 -65 -53 -16 -51 35 -67 53 -36 41 18 -7 11 8 -19 42
l-20 22 22 0 22 0 -20 27 c-20 24 -20 28 -5 51 16 25 12 33 -21 45 -16 6 14
53 42 66 34 15 39 14 66 -15 14 -15 27 -22 31 -16 10 16 -3 38 -30 51 -35 16
-52 14 -90 -10 -63 -38 -104 -8 -104 77 0 46 11 55 52 47 22 -4 29 0 42 24 8
17 32 37 55 48 40 18 42 18 62 -1 20 -18 22 -18 70 0 61 21 85 10 67 -30 -13
-27 -6 -39 16 -31 24 9 31 56 12 75 -14 14 -60 20 -191 23 -11 1 -56 -20 -100
-45 -49 -28 -90 -46 -105 -44 -28 3 -87 75 -96 116 -9 44 -18 56 -58 76 -26
13 -41 15 -48 8 -6 -6 -17 -8 -25 -5 -23 9 -1 -27 53 -89 39 -43 45 -55 40
-81 -9 -42 -13 -44 -41 -17 -30 29 -31 22 -4 -33 l21 -42 -60 59 c-34 33 -75
85 -91 116 -35 66 -53 83 -78 78 -30 -6 -27 -35 5 -52 25 -13 82 -84 82 -103
0 -4 -10 -17 -22 -30 -20 -22 -21 -25 -6 -40 12 -11 24 -13 45 -7 15 4 31 8
35 8 10 1 98 -142 98 -159 0 -7 -7 -18 -15 -25 -9 -7 -15 -23 -13 -34 3 -18
10 -21 59 -21 55 0 56 -1 175 -95 65 -52 136 -108 157 -123 71 -53 31 -66 -49
-16 -27 18 -84 66 -126 107 -79 77 -102 87 -74 34 25 -48 124 -131 207 -173
80 -40 105 -66 94 -99 -9 -28 -72 -80 -131 -107 -51 -23 -55 -24 -196 -13
-185 13 -188 14 -188 56 0 23 -6 37 -21 44 -33 18 -49 -4 -49 -66 0 -54 13
-75 33 -55 14 14 33 14 97 0 40 -9 50 -15 50 -31 0 -17 -4 -19 -25 -14 -22 6
-28 2 -41 -29 -17 -41 -23 -42 -74 -13 -21 13 -42 19 -46 15 -13 -12 67 -117
125 -165 83 -67 148 -93 244 -99 78 -5 85 -4 146 28 58 31 112 81 100 94 -3 2
-30 -11 -60 -29 -99 -62 -194 -70 -312 -26 -66 25 -155 98 -135 111 7 5 78 9
157 9 120 0 147 3 163 17 24 22 23 2 -2 -25 -19 -20 -44 -29 -140 -49 l-45
-10 28 -13 c23 -11 37 -12 74 -2 38 11 49 10 69 -3 24 -15 56 -20 67 -9 3 3
-1 21 -10 39 -13 27 -14 39 -4 66 14 40 3 54 -50 64 -31 6 -40 3 -61 -20 -23
-24 -29 -26 -99 -23 -58 2 -74 6 -74 18 0 10 11 15 35 15 31 0 35 3 38 28 3
27 4 27 80 27 65 0 87 5 140 30 l63 30 19 -42 c21 -47 18 -61 -16 -76 -32 -15
-35 -72 -4 -72 44 0 69 91 45 160 -34 95 -13 105 45 20 45 -66 68 -83 108 -78
26 3 26 4 -20 36 -27 18 -48 37 -48 42 0 11 47 3 104 -17 50 -17 77 -17 104 3
32 22 27 30 -17 26 -106 -10 -206 40 -229 115 -14 47 -4 59 38 44 18 -6 36 -8
41 -5 5 2 22 -2 38 -11 48 -24 67 -19 112 35 l42 50 116 0 c104 1 114 2 97 15
-14 10 -45 15 -97 15 -43 0 -102 5 -131 11 -123 26 -238 101 -279 181 -23 44
-19 65 16 98 21 20 40 24 125 31 126 10 179 27 277 91 118 77 157 94 295 127
69 16 161 44 205 60 43 17 107 37 143 46 36 9 98 27 138 41 96 35 106 30 98
-45 -16 -143 -90 -322 -176 -430 -34 -41 -62 -64 -108 -86 -57 -27 -62 -32
-57 -56 5 -23 0 -31 -47 -61 -74 -49 -80 -50 -201 -57 -143 -8 -137 -26 8 -25
139 0 154 8 309 149 127 116 158 157 201 258 17 42 40 77 58 90 16 12 52 42
80 67 29 25 81 70 117 100 166 137 272 267 339 415 15 34 74 130 131 215 85
129 125 177 234 286 126 125 136 133 251 190 109 53 126 59 185 59 l64 0 18
-50 c11 -27 34 -81 52 -120 98 -204 89 -295 -38 -395 -74 -58 -105 -99 -161
-210 -47 -95 -199 -355 -280 -480 -33 -52 -84 -142 -112 -200 -44 -89 -170
-283 -259 -397 -13 -18 -37 -36 -52 -39 -82 -18 -101 -27 -132 -59 -90 -91
-129 -112 -250 -139 -138 -30 -158 -36 -235 -69 -60 -25 -85 -28 -271 -31 -80
-1 -84 0 -203 58 -67 32 -124 56 -128 53 -12 -12 59 -66 112 -86 30 -12 94
-28 143 -37 48 -8 97 -18 109 -20 29 -5 94 -117 146 -249 l40 -100 -6 -150
c-7 -173 -28 -305 -60 -384 -13 -31 -72 -141 -133 -246 -61 -104 -132 -228
-159 -275 -71 -127 -142 -226 -195 -273 -49 -44 -164 -97 -210 -97 -43 0 -125
46 -163 90 -34 40 -37 42 -37 19 0 -38 36 -86 82 -111 33 -17 60 -22 118 -23
67 0 83 4 153 39 133 65 158 97 365 461 60 105 122 212 139 239 l31 49 7 -41
c8 -50 26 -67 62 -58 59 15 65 12 78 -24 10 -30 17 -36 51 -40 36 -5 41 -9 67
-63 32 -65 79 -101 199 -151 37 -15 72 -34 79 -42 6 -7 38 -19 71 -25 44 -9
76 -24 125 -60 74 -55 97 -59 193 -32 l60 16 29 -27 c35 -33 54 -32 171 7 41
14 108 30 148 36 40 6 103 25 140 42 105 48 139 59 262 79 70 12 135 30 169
46 80 39 172 136 212 222 28 62 38 74 75 92 48 22 64 44 64 90 0 47 44 168 87
240 l38 65 -2 111 c-3 183 -14 227 -99 397 -42 84 -90 167 -107 185 -58 61
-195 113 -247 94 l-24 -9 26 -17 c15 -10 53 -24 85 -33 116 -30 145 -62 236
-263 75 -168 90 -225 91 -341 1 -96 1 -96 -52 -205 -31 -65 -58 -140 -67 -184
-16 -76 -20 -82 -73 -111 -20 -11 -42 -42 -71 -102 -89 -181 -171 -226 -491
-267 -203 -26 -237 -36 -373 -109 -63 -33 -123 -61 -133 -61 -10 0 -33 14 -51
32 -32 31 -34 32 -78 20 -96 -26 -144 -14 -224 52 -37 31 -50 36 -95 36 -32 0
-65 7 -89 20 -20 11 -65 31 -100 45 -77 31 -123 73 -153 141 -25 57 -33 64
-77 73 -23 5 -33 15 -41 38 -18 52 -30 59 -71 40 -41 -19 -44 -16 -55 61 -8
51 -5 68 25 157 63 185 80 355 50 512 -11 58 -31 110 -80 205 -36 69 -65 132
-65 138 0 8 14 9 43 5 34 -5 63 1 152 33 61 21 171 54 245 71 165 39 255 81
289 134 22 34 28 37 69 37 24 0 60 7 80 17 47 21 229 204 275 276 19 30 41 58
47 62 23 14 164 8 225 -10 93 -27 193 -73 280 -130 161 -104 194 -156 181
-285 -9 -84 -33 -135 -90 -190 -25 -24 -46 -48 -46 -52 0 -4 11 -8 25 -8 41 0
90 54 126 138 54 128 43 258 -28 323 -48 44 -218 158 -276 185 -65 29 -234 74
-286 75 -81 1 -81 -1 55 199 109 160 147 228 280 499 85 173 159 333 164 356
12 52 0 95 -44 169 -19 31 -41 79 -50 107 -10 28 -28 68 -41 88 -13 21 -29 57
-36 80 -15 52 -54 76 -110 68 -54 -7 -254 -101 -314 -147 -132 -102 -250 -232
-370 -409 -82 -122 -124 -193 -137 -235 -23 -76 -50 -117 -136 -207 -86 -92
-330 -319 -342 -319 -5 0 -8 6 -6 13 2 6 10 58 17 114 14 115 11 124 -49 149
-47 19 -81 18 -122 -6 -61 -36 -201 -102 -206 -97 -2 2 69 52 158 110 199 129
229 155 322 271 136 171 228 255 391 361 83 54 172 116 198 138 151 125 247
369 249 632 1 189 -40 307 -178 516 -35 53 -64 103 -64 111 0 45 177 58 265
19 114 -50 176 -118 220 -237 14 -38 32 -88 41 -111 l16 -43 36 25 c49 34 75
31 121 -10 36 -33 65 -87 105 -198 11 -29 31 -57 52 -74 24 -18 38 -39 46 -71
8 -32 26 -60 64 -99 29 -31 59 -72 66 -92 7 -23 12 -99 12 -206 1 -158 -1
-176 -27 -259 -15 -49 -26 -90 -24 -92 2 -3 21 35 42 83 44 103 52 176 36 307
-6 49 -7 95 -2 103 12 23 19 -2 32 -125 l11 -107 -41 -185 c-37 -164 -73 -262
-89 -246 -3 3 -8 23 -12 43 -7 36 -8 36 -9 -16 -1 -49 -5 -58 -44 -100 -23
-25 -65 -86 -92 -136 -33 -59 -78 -119 -134 -178 -60 -63 -80 -92 -73 -99 15
-15 79 28 125 84 19 24 66 93 103 153 37 61 94 139 126 175 33 36 67 81 77
100 39 74 111 370 111 451 0 119 -50 235 -145 340 -37 41 -77 94 -88 119 -11
25 -32 63 -47 85 -16 22 -38 72 -50 110 -27 81 -66 143 -116 181 -31 24 -41
26 -90 21 -53 -5 -55 -5 -66 21 -46 117 -92 193 -142 239 -107 98 -213 123
-349 83 l-77 -23 -72 33 c-87 40 -218 53 -253 27z m1175 -1577 c0 -82 -244
-571 -409 -820 -119 -179 -338 -468 -409 -537 -59 -58 -118 -100 -128 -90 -4
3 145 227 200 300 13 18 46 77 74 133 27 55 95 172 150 260 54 87 111 182 125
209 14 28 45 84 69 125 24 41 52 95 63 120 29 69 59 105 117 138 29 16 63 41
75 54 25 27 53 98 53 135 0 14 4 21 10 18 6 -3 10 -24 10 -45z m-3215 -852
c25 12 27 10 54 -51 16 -34 42 -75 59 -91 22 -21 34 -45 42 -83 7 -30 9 -57 6
-60 -9 -9 -52 33 -94 92 -20 28 -60 79 -89 114 -59 73 -68 97 -28 79 19 -8 31
-8 50 0z m18 -184 c37 -48 66 -88 64 -90 -5 -6 -144 133 -157 156 -9 16 -8 20
7 20 11 0 46 -36 86 -86z"/>
<path d="M6863 11475 c-202 -55 -344 -220 -389 -453 -8 -41 -14 -93 -14 -117
0 -66 -12 -87 -100 -172 -106 -102 -129 -149 -141 -285 -30 -344 -32 -395 -20
-444 16 -64 127 -250 169 -281 17 -14 32 -33 32 -42 0 -10 -20 -52 -44 -94
-59 -104 -91 -205 -91 -288 0 -63 3 -71 47 -135 26 -38 72 -123 102 -190 47
-102 57 -134 65 -210 16 -145 48 -230 106 -287 l38 -37 -25 -38 c-63 -94 -148
-313 -168 -429 -18 -106 26 -164 153 -202 67 -20 173 -55 242 -79 151 -52 281
-70 575 -79 226 -6 321 2 485 43 55 14 128 38 163 54 82 38 291 198 412 315
56 54 126 109 170 135 167 97 225 136 313 210 51 42 110 97 131 121 22 24 81
88 132 142 101 107 132 165 142 265 7 80 -12 63 -44 -39 -21 -68 -38 -103 -67
-135 -49 -56 -76 -70 -163 -85 -89 -15 -115 -31 -150 -92 -16 -28 -44 -60 -62
-70 -97 -57 -388 -144 -510 -153 -43 -4 -111 -15 -152 -26 -60 -16 -124 -22
-320 -27 -252 -8 -284 -13 -327 -53 -32 -30 -36 -65 -13 -138 27 -89 26 -108
-7 -121 -34 -13 -178 -6 -313 17 -169 28 -208 29 -231 8 -26 -23 -82 -133
-100 -194 -20 -72 -22 -72 -100 -39 -38 16 -113 41 -165 55 -110 28 -127 36
-148 66 -25 36 -19 73 39 247 69 203 77 219 159 310 81 90 87 122 35 176 -16
17 -29 36 -29 41 0 6 17 20 38 32 20 11 55 39 77 62 62 65 80 71 249 80 83 5
230 18 326 29 96 11 204 22 240 26 65 6 141 33 154 54 9 14 -26 14 -74 1 -19
-5 -168 -23 -330 -39 -543 -56 -499 -47 -583 -118 -24 -21 -65 -53 -90 -70
-57 -40 -60 -62 -12 -114 19 -22 35 -44 35 -49 0 -18 -74 -93 -78 -79 -2 8
-22 50 -43 95 -29 59 -45 111 -60 190 -10 60 -24 125 -31 144 -19 61 -129 274
-159 307 -15 18 -31 48 -35 68 -8 43 7 131 35 206 23 62 95 179 109 179 5 0
51 -39 103 -87 109 -100 165 -138 269 -180 215 -89 366 -125 527 -127 140 -2
147 -6 190 -90 52 -102 157 -186 253 -201 25 -4 65 -18 90 -30 79 -40 121 -49
178 -36 41 8 59 7 97 -6 57 -19 116 -6 141 32 25 39 8 48 -37 18 -35 -23 -44
-25 -92 -18 -28 5 -80 8 -114 6 -51 -1 -75 4 -130 29 -37 17 -94 37 -127 45
-102 24 -188 102 -227 204 -28 75 -23 193 12 266 49 103 156 181 264 192 51 5
63 2 145 -38 100 -50 105 -57 114 -160 5 -72 24 -128 69 -204 16 -27 43 -88
58 -134 52 -151 64 -159 173 -101 42 22 87 40 99 40 12 0 51 -14 85 -30 35
-17 73 -30 84 -30 37 0 13 25 -60 60 -39 19 -87 51 -107 69 l-35 35 0 -32 c0
-25 -5 -33 -25 -38 -13 -3 -46 -21 -72 -40 -58 -41 -62 -38 -92 65 -25 81 -22
101 11 101 65 0 141 41 119 63 -8 8 -27 6 -64 -6 -56 -18 -94 -21 -122 -11
-25 10 -65 98 -91 202 -32 127 -47 151 -120 187 -46 23 -75 30 -137 33 -72 4
-84 1 -142 -27 -105 -52 -205 -180 -205 -263 0 -62 -18 -97 -55 -107 -87 -24
-422 32 -483 80 -13 10 -63 30 -110 45 -153 46 -181 65 -382 258 -215 205
-269 292 -255 411 4 33 10 139 14 236 7 167 9 178 38 240 31 64 54 92 151 182
56 52 54 46 71 212 18 170 69 284 171 378 70 66 133 92 255 107 95 12 237 2
353 -25 130 -30 308 -87 387 -124 104 -49 334 -202 460 -307 55 -45 135 -111
177 -146 140 -114 334 -295 399 -373 57 -68 122 -125 142 -125 4 0 0 15 -9 33
-22 42 -149 172 -249 255 -44 36 -118 102 -165 147 -186 176 -565 462 -707
534 -73 36 -368 125 -503 151 -119 24 -290 25 -367 5z m2247 -2897 c0 -32
-152 -175 -267 -250 -54 -36 -138 -89 -186 -119 -49 -30 -137 -97 -195 -150
-136 -122 -341 -274 -412 -306 -30 -14 -111 -41 -180 -61 l-125 -36 -345 0
c-341 -1 -441 7 -477 36 -25 20 -13 75 37 176 58 120 66 124 172 92 84 -25
343 -55 396 -45 21 4 50 21 69 40 44 44 45 90 3 138 -16 19 -30 43 -30 54 0
26 49 71 91 83 19 6 133 10 254 9 188 -1 232 2 305 19 47 11 128 27 180 36 52
8 154 32 225 51 278 77 291 84 324 173 24 67 43 80 119 81 37 1 42 -2 42 -21z"/>
<path d="M9583 10793 c-20 -8 -15 -51 7 -63 28 -15 60 4 60 34 0 30 -31 44
-67 29z"/>
<path d="M9162 10763 c-13 -23 6 -62 34 -69 64 -16 80 26 25 63 -41 27 -47 28
-59 6z"/>
<path d="M9427 10642 c-22 -24 -22 -49 1 -60 39 -21 89 30 62 63 -17 20 -44
19 -63 -3z"/>
<path d="M9591 10589 c-18 -49 -21 -66 -12 -85 19 -43 48 -21 63 49 17 74 15
92 -8 95 -17 2 -25 -7 -43 -59z"/>
<path d="M9231 10610 c0 -14 7 -41 15 -60 l14 -35 -4 48 c-4 51 -27 93 -25 47z"/>
<path d="M8871 10606 c-6 -7 -25 -16 -41 -20 -38 -7 -47 -29 -26 -61 20 -30
41 -32 55 -6 6 10 24 24 41 29 34 12 38 31 12 55 -22 21 -26 21 -41 3z"/>
<path d="M9380 10526 c0 -32 13 -39 44 -25 31 14 33 25 7 39 -33 17 -51 12
-51 -14z"/>
<path d="M9934 10525 c-4 -9 -2 -21 4 -27 16 -16 47 -5 47 17 0 26 -42 34 -51
10z"/>
<path d="M8893 10450 c5 -41 61 -170 73 -170 10 0 33 33 34 48 0 6 -12 22 -26
35 -15 12 -37 46 -50 75 -13 28 -27 52 -30 52 -4 0 -4 -18 -1 -40z"/>
<path d="M9545 10428 c7 -73 25 -169 33 -183 16 -26 20 56 6 123 -27 131 -51
167 -39 60z"/>
<path d="M8586 10404 c-21 -21 -20 -37 4 -59 42 -38 94 19 54 59 -8 9 -22 16
-29 16 -7 0 -21 -7 -29 -16z"/>
<path d="M9617 10406 c-13 -14 -13 -21 -1 -62 8 -26 14 -84 14 -128 0 -94 13
-127 30 -81 7 19 8 56 3 109 -4 45 -7 97 -6 118 3 44 -17 66 -40 44z"/>
<path d="M10050 10300 c-15 -15 -18 -25 -12 -33 6 -7 12 -23 14 -37 4 -25 4
-25 21 7 32 59 16 102 -23 63z"/>
<path d="M8860 10274 c-13 -33 2 -54 37 -54 29 0 39 23 25 56 -16 33 -50 32
-62 -2z"/>
<path d="M9026 10274 c-19 -19 -20 -35 -3 -58 19 -26 61 -18 65 12 3 22 -22
62 -39 62 -4 0 -15 -7 -23 -16z"/>
<path d="M8372 9992 c-59 -29 -56 -92 7 -132 51 -33 208 -203 193 -208 -27 -9
-153 85 -254 191 -58 60 -70 68 -83 57 -10 -8 -15 -25 -13 -44 3 -28 7 -31 39
-34 35 -3 37 -5 44 -48 7 -52 23 -62 58 -39 25 16 26 15 82 -35 31 -28 82 -63
113 -79 31 -15 92 -50 135 -79 92 -60 106 -65 259 -92 138 -24 168 -25 168 -6
0 19 -17 30 -85 55 -121 45 -214 102 -304 186 -101 95 -129 114 -141 94 -6 -9
-19 -4 -49 20 -23 18 -41 29 -41 24 0 -15 50 -57 135 -114 44 -29 113 -79 154
-111 40 -33 97 -71 125 -85 37 -20 46 -28 32 -31 -55 -12 -199 42 -271 102
-30 25 -30 25 -6 26 24 0 24 0 5 21 -10 12 -39 35 -64 52 -84 57 -210 177
-210 201 0 30 18 46 52 46 36 0 45 22 24 55 -19 29 -55 32 -104 7z"/>
<path d="M8632 9928 c-33 -33 10 -99 50 -77 24 13 23 44 -2 69 -23 23 -31 25
-48 8z"/>
<path d="M8525 9910 c-7 -23 10 -50 31 -50 18 0 35 34 28 54 -9 24 -51 20 -59
-4z"/>
<path d="M8333 9648 c-46 -22 -36 -78 13 -78 20 0 54 32 54 52 0 9 -30 38 -38
37 -4 0 -17 -5 -29 -11z"/>
<path d="M8463 9542 c26 -28 134 -84 242 -123 86 -31 97 -33 232 -33 132 -1
166 4 149 21 -4 4 -72 10 -152 14 -160 8 -220 23 -358 89 -45 21 -92 42 -106
46 -25 7 -25 6 -7 -14z"/>
<path d="M9894 9406 c-54 -25 -77 -46 -49 -46 21 0 101 39 116 56 17 21 -6 17
-67 -10z"/>
<path d="M9623 9382 c-2 -10 -14 -22 -26 -27 -17 -8 -22 -18 -20 -46 2 -33 -1
-37 -43 -57 -24 -12 -44 -26 -44 -32 0 -13 2 -13 50 6 22 9 40 21 41 28 2 33
18 -37 18 -81 1 -53 -12 -74 -32 -54 -6 6 -19 11 -29 11 -22 0 -36 -47 -19
-69 6 -9 14 -24 17 -33 7 -20 17 -22 43 -8 35 18 46 68 46 203 0 70 2 127 5
127 3 0 30 -13 60 -28 64 -31 65 -36 31 -149 -15 -49 -33 -84 -61 -116 -57
-64 -54 -85 7 -48 20 13 42 43 64 86 21 43 37 64 45 61 8 -3 54 -32 103 -65
62 -42 113 -87 165 -147 81 -95 90 -116 107 -259 22 -182 22 -189 1 -232 -47
-91 -114 -143 -277 -212 -138 -59 -188 -88 -320 -186 -135 -100 -329 -230
-421 -281 -116 -65 -117 -69 -84 -348 13 -116 16 -175 9 -187 -9 -17 -23 -19
-132 -19 -171 0 -237 12 -298 51 -44 28 -63 33 -147 40 -53 5 -140 15 -192 24
-52 9 -158 20 -235 25 -77 5 -156 12 -175 15 l-35 6 27 -25 c33 -29 55 -33
288 -45 173 -9 256 -25 228 -42 -17 -11 -249 -10 -313 1 -27 5 -97 14 -154 19
-110 11 -151 28 -151 61 0 28 35 60 64 60 70 0 403 283 442 375 27 65 4 56
-60 -22 -109 -135 -281 -274 -384 -312 -74 -26 -106 -62 -98 -106 7 -33 57
-85 84 -85 9 0 64 -7 122 -15 58 -8 233 -19 390 -25 157 -5 366 -18 465 -27
99 -9 209 -17 245 -18 l65 0 120 120 c66 66 145 143 175 170 62 56 353 367
541 579 290 325 295 338 249 632 -12 76 -23 153 -26 171 -3 19 -25 54 -57 91
-28 33 -65 76 -80 96 -32 41 -107 99 -190 146 -60 34 -65 43 -42 74 8 11 15
28 15 37 0 18 -9 22 -68 34 -20 4 -39 17 -50 33 -28 46 -60 57 -69 24z m477
-1080 c0 -5 -39 -53 -86 -108 -48 -54 -116 -133 -152 -174 -203 -235 -762
-808 -763 -783 -1 39 -10 164 -20 281 -5 68 -7 133 -3 145 12 41 58 78 199
158 77 44 203 127 280 185 165 123 205 146 347 203 59 24 124 56 145 72 39 30
53 35 53 21z"/>
<path d="M8447 9345 c-11 -10 -14 -27 -10 -57 8 -59 19 -78 47 -78 38 0 48 52
22 115 -16 37 -36 44 -59 20z"/>
<path d="M8356 9214 c-9 -8 -16 -19 -16 -23 0 -15 37 -41 59 -41 32 0 37 27
11 56 -28 28 -33 29 -54 8z"/>
<path d="M9372 9190 c-6 -16 -22 -35 -36 -42 -30 -13 -34 -39 -10 -59 14 -11
20 -10 40 14 l24 28 0 -24 c0 -29 -22 -51 -75 -73 -37 -15 -38 -17 -18 -25 31
-11 74 3 94 32 14 19 26 66 29 112 0 11 22 8 53 -8 42 -22 29 3 -22 43 -53 40
-66 40 -79 2z"/>
<path d="M9207 9162 c-33 -36 -17 -73 21 -46 25 18 27 24 9 48 -12 16 -14 16
-30 -2z"/>
<path d="M2305 6451 c-155 -28 -213 -54 -399 -179 -93 -62 -210 -132 -260
-156 -106 -50 -127 -70 -196 -191 -28 -49 -63 -103 -78 -118 -26 -28 -29 -29
-105 -22 -75 6 -78 6 -105 -22 -23 -23 -35 -55 -65 -174 -20 -81 -44 -189 -53
-240 -21 -129 -29 -450 -15 -634 28 -350 25 -334 77 -450 26 -59 63 -126 82
-149 19 -22 48 -65 65 -95 19 -33 103 -128 215 -243 102 -104 182 -191 178
-195 -4 -4 -28 1 -54 11 -235 92 -279 100 -507 101 -173 0 -182 -1 -235 -26
-71 -33 -153 -108 -179 -162 -25 -51 -26 -102 -6 -217 8 -47 15 -113 15 -147
0 -130 11 -153 129 -278 150 -157 210 -251 256 -395 28 -92 45 -128 81 -173
60 -76 159 -149 266 -193 49 -20 92 -42 98 -49 5 -6 21 -68 35 -136 13 -68 29
-139 34 -157 6 -18 8 -39 5 -46 -9 -23 -174 -81 -229 -80 -61 1 -202 52 -274
99 -29 18 -76 39 -104 46 -139 32 -284 146 -419 329 -117 158 -308 451 -351
536 -24 49 -68 161 -97 249 -51 154 -53 164 -53 270 0 70 6 132 17 171 21 82
20 126 -5 175 -18 37 -20 54 -16 178 5 173 21 265 52 313 14 21 34 63 46 93
22 60 59 95 145 138 28 14 67 43 85 63 19 21 48 52 64 70 31 32 86 54 138 54
19 0 45 16 86 54 79 72 124 83 265 61 25 -4 27 -3 16 11 -20 23 -78 44 -124
44 -64 0 -127 -26 -185 -75 -38 -32 -65 -47 -107 -55 -49 -10 -65 -21 -137
-89 -45 -42 -104 -89 -132 -105 -99 -58 -128 -89 -182 -198 -48 -97 -52 -112
-68 -240 -20 -157 -17 -269 10 -344 17 -48 18 -59 5 -150 -16 -115 -16 -295 0
-356 28 -108 86 -271 126 -356 65 -139 396 -613 504 -723 92 -93 125 -114 258
-161 48 -16 117 -45 153 -63 36 -19 112 -50 170 -70 124 -43 145 -42 271 16
48 22 92 38 98 34 5 -3 19 -36 30 -72 22 -71 72 -161 129 -233 47 -59 58 -67
111 -83 43 -14 45 -16 47 -55 2 -67 30 -135 71 -174 20 -19 83 -69 138 -111
56 -42 136 -105 178 -140 150 -128 429 -404 496 -491 82 -105 141 -152 275
-217 123 -60 158 -67 370 -71 l170 -3 65 32 c36 18 110 66 165 108 55 43 128
95 162 117 46 29 72 54 97 96 19 31 51 72 70 91 82 79 130 291 66 291 -12 0
-30 -22 -52 -62 -38 -68 -78 -102 -142 -119 -196 -50 -198 -51 -244 -95 l-45
-43 7 -105 c8 -123 6 -126 -91 -126 -78 0 -233 -25 -311 -50 -95 -30 -114 -27
-159 23 -55 62 -111 103 -166 121 -71 24 -101 42 -131 77 -24 28 -76 120 -76
134 0 3 24 5 53 5 43 0 58 5 74 22 45 50 57 96 79 306 8 81 31 227 50 325 18
97 39 210 45 250 10 72 82 335 101 371 9 17 14 14 56 -28 26 -25 65 -75 87
-111 106 -176 134 -212 204 -263 62 -45 71 -56 95 -118 75 -196 235 -338 499
-443 40 -16 116 -52 168 -80 52 -27 123 -57 159 -65 122 -29 330 -17 650 37
129 23 169 25 365 22 170 -2 231 -6 269 -19 92 -30 202 -14 236 35 17 23 25
27 54 22 53 -8 66 19 66 144 0 102 0 103 43 185 50 94 137 223 286 418 128
170 152 218 162 324 9 102 21 136 118 315 97 179 107 208 116 345 3 60 13 146
21 190 19 110 18 140 -10 232 -18 62 -24 113 -29 239 -7 173 -19 255 -73 495
-68 301 -118 427 -212 531 -87 96 -224 150 -431 170 -118 12 -211 6 -458 -29
-106 -14 -195 -23 -199 -19 -4 4 2 35 14 70 14 40 22 85 22 127 0 36 5 99 12
142 10 68 9 88 -11 190 -47 235 -80 334 -150 440 -74 112 -132 171 -211 212
-43 23 -76 47 -82 62 -16 34 -28 30 -28 -10 0 -37 8 -46 110 -114 63 -43 179
-182 214 -257 13 -27 43 -137 67 -243 42 -186 43 -194 31 -262 -7 -39 -12
-107 -12 -153 0 -60 -6 -94 -20 -126 -11 -24 -20 -51 -20 -61 0 -28 -31 -46
-129 -74 -176 -50 -292 -111 -601 -316 -115 -76 -237 -146 -350 -202 -195 -95
-250 -139 -250 -200 l0 -33 60 67 c56 62 74 74 223 148 158 78 215 112 497
294 144 93 297 172 395 205 77 25 287 67 433 86 278 37 578 8 732 -70 97 -49
176 -175 248 -393 70 -209 99 -395 111 -702 7 -173 11 -201 31 -245 23 -48 23
-53 11 -145 -7 -52 -17 -152 -21 -222 -7 -102 -14 -138 -35 -190 -15 -34 -59
-139 -97 -233 -38 -93 -74 -176 -80 -182 -18 -22 -36 -15 -87 34 -43 42 -52
59 -76 138 -49 168 -56 188 -92 249 -19 34 -49 86 -66 116 -91 156 -329 216
-1027 257 -338 20 -453 22 -460 8 -9 -18 109 -34 400 -55 642 -46 769 -66 910
-142 140 -74 154 -101 115 -217 -46 -135 -26 -236 73 -366 55 -72 81 -87 195
-110 87 -17 102 -23 105 -41 4 -28 -91 -169 -236 -349 -67 -82 -139 -182 -162
-221 -36 -62 -100 -251 -100 -294 0 -32 -21 -88 -35 -94 -8 -3 -36 1 -62 9
-74 23 -156 18 -288 -15 -101 -26 -136 -30 -225 -29 -182 4 -232 0 -345 -26
-204 -47 -570 -58 -676 -20 -26 9 -81 38 -124 65 -50 32 -94 52 -124 56 -163
23 -399 192 -478 341 -18 33 -33 66 -33 72 0 7 22 0 51 -15 28 -14 99 -40 158
-58 58 -18 122 -41 141 -51 25 -13 67 -20 151 -25 l116 -6 51 -45 c81 -74 245
-114 427 -106 142 6 234 39 422 151 179 107 510 332 523 356 5 10 12 44 16 76
4 33 22 96 40 141 47 116 51 150 22 193 -13 19 -43 47 -66 63 -74 50 -135 65
-292 72 -169 8 -283 -2 -472 -45 -121 -26 -232 -39 -465 -54 -90 -6 -91 -5
-108 54 -10 33 -14 35 -55 38 -85 5 -143 -47 -126 -112 9 -35 29 -42 78 -25
35 11 43 11 73 -5 30 -16 48 -18 147 -12 128 8 354 37 533 67 338 57 575 40
667 -48 42 -40 43 -65 4 -152 -20 -42 -40 -102 -47 -132 -15 -74 -46 -118
-113 -159 -32 -19 -145 -92 -253 -162 -108 -71 -213 -133 -233 -139 -55 -17
-119 -3 -186 38 -109 68 -165 93 -207 93 -22 0 -89 -16 -150 -35 -130 -43
-223 -52 -364 -36 -121 13 -176 32 -263 91 -92 62 -474 384 -541 455 -31 33
-101 107 -155 165 -55 58 -110 126 -122 151 -12 26 -33 95 -47 154 -13 59 -27
110 -30 113 -9 9 -25 -19 -25 -44 0 -53 34 -214 56 -263 13 -30 45 -76 69
-102 25 -27 45 -57 45 -68 0 -11 -22 -95 -50 -186 -27 -90 -59 -220 -69 -287
-11 -68 -29 -168 -40 -223 -12 -55 -32 -193 -45 -306 -27 -229 -39 -269 -84
-269 -35 0 -79 27 -177 110 -44 37 -145 112 -225 165 -309 208 -450 325 -495
415 -23 45 -30 51 -80 65 -42 13 -64 27 -96 63 -84 95 -183 343 -235 587 -21
98 -24 347 -5 415 19 67 141 185 242 234 156 75 198 81 517 79 l284 -1 38 -27
c38 -26 42 -27 132 -20 l93 7 -30 -31 c-63 -67 -198 -108 -316 -95 -83 9 -87
13 -66 71 26 72 23 83 -18 83 -81 0 -158 -78 -127 -128 12 -19 210 -72 267
-72 69 0 169 25 228 57 65 36 203 170 212 206 10 38 0 45 -28 19 -13 -12 -29
-22 -35 -22 -21 0 -13 40 12 65 14 14 22 27 18 29 -4 2 -33 7 -65 11 -31 4
-68 16 -81 26 -30 24 -36 24 -90 -3 -43 -21 -46 -21 -64 -4 -17 14 -20 15 -25
2 -9 -24 28 -61 80 -81 60 -22 73 -32 73 -57 0 -16 -4 -18 -17 -12 -10 5 -56
8 -103 6 -47 -1 -161 5 -255 14 -188 17 -285 14 -433 -16 -243 -50 -426 -174
-476 -323 -9 -26 -19 -86 -22 -132 -10 -125 -11 -125 -123 -70 -64 33 -114 67
-161 112 -71 66 -84 92 -135 249 -33 105 -154 275 -268 376 -37 34 -75 74 -83
89 -8 16 -19 74 -24 128 -5 55 -14 130 -20 167 -12 71 -5 143 16 185 20 39 91
98 153 128 53 24 64 26 201 25 155 -1 227 -11 355 -51 143 -45 377 -134 500
-190 66 -31 144 -64 174 -74 96 -33 101 -40 98 -115 -2 -61 0 -67 26 -90 59
-51 111 -18 111 71 0 60 -16 98 -48 113 -11 5 -64 29 -116 52 -347 155 -432
211 -687 446 -121 112 -231 240 -297 347 -50 81 -106 222 -106 270 0 15 -9 69
-21 120 -19 83 -20 113 -16 312 3 121 13 278 21 348 16 131 96 453 122 495 13
19 23 22 85 22 39 0 79 4 89 10 10 5 59 68 110 139 95 135 126 163 224 206 32
14 122 68 200 119 261 173 315 191 577 191 l187 0 78 -42 c44 -24 147 -76 229
-117 128 -64 163 -87 231 -150 59 -55 91 -94 118 -145 20 -39 43 -77 52 -85
10 -11 15 -42 17 -108 3 -90 2 -95 -33 -163 -134 -254 -202 -395 -243 -500
-73 -190 -76 -207 -62 -444 l7 -118 -37 -49 c-46 -60 -55 -83 -55 -144 0 -32
6 -55 19 -71 l19 -23 30 31 c46 51 53 96 41 289 -15 251 -15 262 11 339 102
307 330 747 436 844 63 57 268 171 308 171 16 0 70 13 121 29 79 26 118 31
286 42 219 13 317 8 404 -21 87 -29 128 -68 180 -169 52 -101 67 -120 119
-155 39 -26 90 -34 101 -17 6 10 -41 51 -58 51 -30 0 -81 58 -122 140 -49 98
-77 130 -147 166 -109 56 -206 63 -521 39 -163 -12 -195 -17 -244 -40 -31 -14
-83 -28 -114 -32 -39 -4 -77 -17 -116 -39 -32 -19 -92 -51 -133 -73 -41 -21
-88 -53 -104 -70 -17 -17 -35 -31 -42 -31 -6 0 -14 22 -18 50 -4 27 -11 52
-17 55 -7 5 -6 12 2 21 29 36 -80 210 -188 299 -70 58 -176 117 -281 156 -35
13 -81 39 -102 57 -75 63 -119 75 -280 79 -108 2 -171 -2 -245 -16z m4065
-4290 c58 -164 65 -175 139 -233 66 -53 66 -53 35 -56 -47 -5 -141 35 -184 78
-43 43 -107 166 -116 222 -5 28 0 47 22 87 26 50 28 51 45 34 10 -10 36 -69
59 -132z m-2786 -674 c52 -45 68 -67 48 -67 -13 0 -132 110 -132 121 0 14 21
1 84 -54z m1236 -321 c28 -20 81 -51 117 -68 57 -28 63 -33 48 -44 -60 -44
-334 -44 -478 0 -47 14 -117 54 -117 67 0 4 30 12 68 19 37 7 96 26 132 42 92
40 157 36 230 -16z m-2773 -44 c38 -32 85 -71 106 -86 21 -16 43 -38 48 -48
10 -18 9 -19 -13 -7 -35 18 -183 127 -200 147 -20 23 -30 52 -18 52 5 0 40
-26 77 -58z m468 -349 c146 -104 175 -130 175 -159 0 -12 25 -52 56 -89 71
-88 116 -153 112 -165 -5 -13 -31 10 -65 58 -34 46 -439 442 -454 442 -4 0
-13 9 -19 21 -11 20 -11 20 32 -2 24 -12 97 -60 163 -106z m3464 28 c12 -7 10
-11 -8 -20 -34 -19 -112 -24 -158 -12 -65 18 -58 30 27 45 32 5 120 -3 139
-13z m-1769 -212 c-17 -44 -44 -84 -109 -155 -109 -121 -250 -229 -272 -207
-5 5 -12 50 -15 100 -6 83 -5 94 14 121 27 37 88 66 184 88 96 22 118 34 170
94 52 60 60 47 28 -41z m-1120 -359 c46 -23 100 -93 76 -98 -8 -2 -29 4 -47
13 -50 26 -189 119 -189 127 0 10 117 -20 160 -42z m660 -78 c0 -16 -118 -76
-167 -85 -18 -4 -57 -2 -85 4 -29 6 -76 11 -105 10 -61 -1 -77 13 -31 28 33
10 149 36 198 44 46 8 190 7 190 -1z"/>
<path d="M3816 4359 c-14 -11 -26 -30 -26 -43 0 -23 -46 -102 -71 -123 -11 -9
-26 -10 -50 -3 -19 5 -60 10 -93 12 -47 2 -61 0 -70 -14 -9 -15 -1 -28 54 -83
40 -40 61 -68 55 -74 -6 -5 -26 -14 -46 -20 -20 -7 -45 -21 -54 -31 -10 -11
-31 -20 -47 -20 -20 0 -39 -10 -59 -32 -34 -37 -34 -37 15 79 43 104 30 124
-21 33 -15 -28 -31 -50 -34 -50 -3 0 -13 16 -22 35 -25 52 -66 46 -96 -14 -21
-39 -58 -78 -67 -68 -9 8 23 162 41 196 21 42 45 39 84 -9 17 -22 36 -40 41
-40 6 0 10 27 10 60 0 54 -3 64 -27 87 -29 27 -82 53 -107 53 -8 0 -26 -12
-39 -26 -16 -17 -38 -27 -68 -31 -56 -7 -79 -19 -79 -41 0 -9 -10 -36 -22 -60
l-23 -43 24 -20 c45 -37 86 -22 125 46 30 50 56 62 31 14 -37 -70 -59 -273
-36 -318 l12 -22 20 25 c14 17 30 26 49 26 18 0 42 11 63 30 19 17 37 30 41
30 11 0 6 -43 -10 -95 -20 -68 -64 -347 -64 -413 0 -54 13 -92 30 -92 6 0 10
21 10 48 0 108 21 215 56 291 20 42 42 94 50 115 14 39 14 39 -5 21 -23 -20
-51 -14 -51 12 0 10 8 36 18 57 l18 39 17 -26 c17 -26 50 -35 73 -19 6 4 23
27 38 51 19 30 31 40 38 33 7 -7 2 -28 -15 -65 -17 -37 -22 -58 -15 -65 11
-11 8 -47 -15 -169 -21 -108 -36 -134 -96 -167 -67 -36 -85 -63 -76 -115 12
-69 2 -81 -63 -81 -95 0 -125 13 -150 65 -24 50 -41 148 -42 237 0 31 -5 60
-10 63 -18 11 -30 -44 -30 -131 0 -68 5 -96 26 -145 14 -34 23 -68 20 -75 -8
-20 -60 -17 -80 5 -22 25 -117 247 -123 289 -5 32 20 78 37 67 4 -3 15 -45 25
-94 17 -87 44 -151 65 -151 17 0 11 57 -19 173 -17 62 -31 125 -33 142 -3 29
-3 29 44 26 46 -2 48 -1 64 32 22 47 14 64 -35 72 -23 4 -51 15 -63 25 -25 20
-27 45 -14 201 6 64 5 98 -2 102 -5 4 -13 -4 -16 -18 -6 -22 -25 -323 -26
-393 0 -19 -5 -23 -27 -20 l-28 3 3 108 c2 60 1 121 -3 135 -6 26 -7 26 -21 8
-10 -15 -14 -51 -14 -136 0 -89 -4 -121 -16 -138 -8 -12 -21 -34 -29 -48 -13
-25 -13 -25 -30 25 -19 57 -31 64 -39 24 -10 -46 21 -139 99 -303 75 -155 96
-220 56 -168 -33 42 -109 202 -141 295 -16 50 -34 133 -41 189 -6 54 -12 101
-14 103 -2 1 -9 -17 -15 -40 -17 -63 -8 -138 35 -273 20 -65 34 -120 32 -123
-5 -4 -116 125 -180 209 -19 26 -45 76 -56 111 -24 70 -45 224 -36 260 3 12
24 32 45 45 29 16 40 29 40 46 0 38 -52 48 -115 22 -42 -18 -43 -29 -10 -72
23 -30 25 -41 25 -143 0 -124 -5 -135 -69 -146 -70 -12 -76 -43 -16 -84 45
-31 75 -108 75 -196 0 -69 6 -77 54 -79 25 -1 37 -10 68 -56 58 -84 78 -126
78 -163 0 -46 15 -57 66 -50 34 4 53 0 98 -23 30 -15 58 -25 62 -21 4 3 -10
25 -30 47 -38 42 -43 59 -26 91 14 26 32 24 60 -6 16 -17 30 -23 45 -19 28 7
39 -9 25 -36 -6 -12 -10 -33 -8 -48 3 -25 5 -24 30 23 50 96 107 125 245 125
115 0 163 -27 163 -92 0 -37 -29 -68 -85 -94 -43 -18 -55 -30 -64 -57 -21 -61
18 -124 95 -153 38 -14 47 -14 92 -1 75 21 173 91 205 144 27 43 29 45 64 38
31 -5 43 -1 90 31 29 20 56 34 59 31 3 -3 -14 -18 -38 -35 -51 -35 -86 -72
-69 -72 26 0 99 45 161 99 102 88 100 87 111 70 17 -27 9 -57 -22 -83 -46 -39
-149 -93 -202 -107 -26 -6 -50 -15 -53 -20 -3 -5 4 -25 16 -45 12 -19 21 -36
19 -38 -2 -1 -15 -7 -29 -13 -25 -11 -24 -12 10 -14 65 -4 114 2 230 26 81 16
159 25 265 27 156 5 185 3 185 -13 0 -11 -100 -69 -121 -69 -9 0 -29 16 -43
35 -22 28 -34 35 -62 35 -34 0 -74 -28 -74 -52 0 -7 9 -27 20 -45 l19 -32 -37
-12 c-25 -8 -87 -10 -207 -7 -93 3 -181 3 -195 -2 -24 -7 -24 -8 15 -25 35
-15 64 -17 225 -13 221 6 276 20 363 91 31 25 67 51 79 58 28 15 115 28 262
39 142 10 241 27 256 45 8 9 3 14 -20 19 -31 6 -31 6 -15 36 14 27 14 31 0 36
-8 3 -23 3 -32 0 -9 -4 -20 -2 -23 5 -16 24 -49 -2 -65 -51 -18 -56 -26 -60
-104 -60 -66 0 -96 17 -104 58 -11 56 -58 79 -91 46 -9 -8 -16 -25 -16 -37 0
-48 -11 -52 -144 -52 -68 0 -127 3 -130 6 -14 14 11 43 98 117 145 124 150
126 241 132 l80 5 3 42 c3 38 9 46 75 100 108 89 122 96 163 90 30 -5 41 -1
70 26 59 54 69 158 17 178 -29 11 -78 -8 -107 -39 -15 -17 -18 -32 -13 -68 6
-55 -1 -64 -121 -144 l-77 -51 -77 6 c-69 6 -78 5 -97 -14 -14 -14 -21 -34
-21 -60 0 -50 -21 -69 -56 -51 -46 25 -72 6 -157 -115 -29 -41 -234 -135 -338
-155 -29 -6 -54 -8 -56 -6 -2 2 58 37 134 77 182 96 215 130 183 189 -27 51
-98 39 -201 -35 -28 -20 -49 -33 -47 -28 2 4 12 25 22 45 18 34 18 39 4 60 -9
14 -35 30 -58 37 -52 16 -59 33 -26 72 37 43 64 98 76 156 6 26 23 66 38 88
15 22 36 59 47 82 13 29 38 55 75 81 50 34 55 41 58 80 8 102 -122 128 -179
35 l-21 -33 22 -35 c31 -51 21 -75 -60 -141 -39 -31 -70 -60 -70 -66 0 -5 12
-7 28 -6 31 3 40 -20 22 -66 -17 -46 -50 -32 -83 36 -39 82 -51 83 -181 20 -8
-4 -1 107 11 156 3 14 20 30 42 40 34 17 36 20 34 65 -1 43 2 50 33 73 41 32
44 64 9 106 -14 16 -25 33 -25 37 0 10 98 173 115 190 11 11 18 10 43 -8 65
-46 112 -11 112 81 0 80 -48 111 -104 67z m-1362 -721 c21 -44 69 -113 121
-173 134 -156 145 -173 145 -217 0 -31 -4 -38 -20 -38 -26 0 -83 58 -136 140
-37 58 -42 72 -37 104 7 44 -6 62 -62 86 -22 9 -46 24 -53 32 -19 23 -27 105
-12 123 7 8 14 15 16 15 1 0 18 -33 38 -72z m400 -151 c20 -51 50 -117 67
-147 61 -107 62 -109 49 -125 -22 -27 -37 -16 -61 43 -12 31 -47 109 -77 172
-30 63 -60 134 -68 158 l-13 42 34 -25 c25 -20 42 -48 69 -118z m833 47 c3 -9
7 -25 8 -37 1 -12 3 -25 4 -29 0 -3 17 -15 36 -27 40 -23 44 -46 16 -82 -29
-38 -53 -89 -49 -107 2 -11 20 -20 58 -27 44 -8 56 -14 58 -31 4 -30 -24 -54
-64 -54 -19 0 -34 -3 -34 -7 0 -5 -10 -21 -23 -36 -29 -37 -51 -28 -73 30 -16
41 -20 44 -43 38 -14 -3 -37 -7 -51 -8 -22 -2 -25 2 -25 31 0 38 -18 53 -57
45 -44 -9 -58 11 -58 79 0 33 5 68 11 79 6 11 38 33 72 48 34 16 84 47 112 70
52 43 91 53 102 25z m-232 -403 c21 -34 31 -41 70 -46 25 -4 45 -12 45 -18 0
-33 -46 -99 -84 -122 -111 -65 -199 -72 -243 -20 -40 46 -29 72 38 94 45 14
72 43 99 104 12 26 27 47 35 47 8 0 26 -18 40 -39z m670 -167 c-57 -48 -123
-75 -173 -72 l-47 3 110 47 c125 54 154 59 110 22z"/>
<path d="M2791 4134 c-12 -15 -21 -33 -21 -40 0 -22 30 -44 60 -44 16 0 36 7
44 16 19 18 21 65 4 82 -21 21 -65 14 -87 -14z"/>
<path d="M3748 4121 c-34 -35 -39 -45 -36 -78 3 -37 4 -38 43 -38 38 0 40 -2
45 -34 13 -86 76 -52 112 60 25 78 17 99 -36 99 -17 0 -40 7 -50 15 -28 21
-34 19 -78 -24z"/>
<path d="M2585 3956 c-19 -46 -19 -59 3 -86 21 -26 38 -21 53 18 13 34 2 80
-22 93 -17 9 -22 5 -34 -25z"/>
<path d="M2686 3934 c-34 -33 -2 -114 45 -114 43 0 54 73 16 108 -28 26 -40
27 -61 6z"/>
<path d="M3727 3893 c-8 -16 -18 -51 -22 -78 -4 -28 -15 -69 -26 -92 -10 -24
-15 -43 -12 -43 3 0 21 14 41 31 28 25 41 30 64 25 41 -8 65 8 77 52 10 33 8
42 -17 82 -22 36 -34 46 -59 48 -26 3 -34 -2 -46 -25z"/>
<path d="M3457 3743 c-47 -93 -96 -223 -83 -223 6 0 19 12 28 28 20 34 90 233
84 239 -3 3 -16 -17 -29 -44z"/>
<path d="M3251 3756 c-7 -8 -19 -49 -27 -93 -8 -43 -24 -118 -35 -168 -27
-122 -28 -127 -20 -149 7 -18 8 -18 24 5 10 13 22 40 27 59 13 49 53 350 47
356 -2 2 -9 -2 -16 -10z"/>
<path d="M4298 3585 c-35 -32 -36 -60 -3 -81 14 -9 25 -20 25 -25 0 -12 -129
-169 -138 -169 -4 0 -20 9 -37 20 -16 11 -44 20 -61 20 -16 0 -39 6 -50 14
-19 14 -19 15 0 50 28 53 6 86 -49 72 -16 -4 -32 -20 -42 -41 -14 -29 -15 -40
-4 -73 12 -35 11 -43 -8 -80 l-21 -40 119 1 c117 2 119 2 164 35 25 18 65 58
89 89 24 31 48 58 53 60 6 2 16 -12 23 -30 14 -40 46 -57 106 -57 51 0 76 22
76 67 0 34 -34 70 -88 92 -23 10 -34 24 -44 54 -12 38 -17 42 -48 45 -26 2
-42 -4 -62 -23z"/>
<path d="M2370 3251 c0 -16 54 -55 118 -85 49 -23 65 -27 74 -18 19 19 0 40
-72 78 -62 32 -120 44 -120 25z"/>
<path d="M2990 3109 c-22 -41 10 -99 55 -99 43 0 62 72 27 103 -26 24 -69 22
-82 -4z"/>
<path d="M2632 3038 c-10 -13 -15 -40 -13 -65 2 -20 80 -35 139 -28 69 9 152
33 152 45 0 5 -28 7 -65 3 -57 -5 -69 -3 -88 14 -46 42 -104 56 -125 31z"/>
<path d="M3037 2960 c-49 -39 -28 -110 28 -96 56 14 76 108 24 114 -14 2 -37
-6 -52 -18z"/>
<path d="M4976 2959 c-42 -33 -51 -57 -29 -81 10 -11 31 -27 46 -35 26 -13 31
-13 47 2 23 21 35 87 20 114 -14 27 -50 27 -84 0z"/>
<path d="M3559 2885 c-1 -11 -1 -50 1 -88 3 -84 -12 -110 -85 -143 -29 -14
-59 -31 -65 -39 -11 -13 -8 -15 18 -15 68 0 144 56 161 117 11 37 -2 160 -18
176 -8 8 -11 5 -12 -8z"/>
<path d="M3146 2787 c-27 -20 -18 -81 12 -85 31 -5 52 15 52 47 0 46 -30 63
-64 38z"/>
<path d="M4570 2770 c-14 -4 -34 -5 -46 -3 -12 2 -39 -3 -60 -12 -30 -12 -36
-18 -24 -25 8 -5 29 -10 46 -10 39 0 51 -14 59 -65 6 -39 5 -41 -45 -73 -37
-24 -74 -37 -132 -47 -85 -15 -119 -32 -96 -46 21 -14 59 -10 140 11 57 15 83
17 109 10 18 -6 41 -7 51 -4 27 8 58 53 58 84 0 15 10 36 24 49 31 29 48 71
44 107 -3 27 -6 29 -53 31 -27 1 -61 -2 -75 -7z"/>
<path d="M4227 2689 c-7 -24 3 -48 28 -69 24 -20 57 14 53 54 -3 28 -7 31 -39
34 -30 3 -37 -1 -42 -19z"/>
<path d="M3218 2631 l-33 -30 3 -135 c3 -107 0 -141 -12 -165 -9 -16 -16 -37
-16 -45 0 -9 47 -62 105 -119 58 -57 105 -110 105 -118 -1 -8 -7 -25 -15 -39
-20 -34 -20 -35 21 -80 58 -64 104 -49 104 35 0 28 -9 45 -40 79 -34 37 -130
217 -130 245 0 5 16 18 35 30 19 11 35 27 35 35 0 30 22 27 63 -11 23 -21 68
-58 100 -82 31 -24 57 -49 57 -57 0 -7 -16 -25 -35 -40 -42 -32 -44 -47 -9
-79 44 -41 114 -26 114 25 0 32 28 50 78 50 46 0 83 13 66 22 -5 3 -38 15 -74
27 -104 34 -126 56 -26 26 53 -16 146 -21 131 -6 -6 5 -35 16 -65 26 -122 39
-173 76 -267 192 -37 46 -68 81 -71 79 -10 -10 65 -130 117 -187 l56 -63 -50
29 c-83 47 -111 72 -167 147 l-53 71 -5 -39 c-4 -31 -10 -40 -27 -42 -18 -3
-23 3 -29 34 -10 53 -22 24 -32 -77 -8 -81 -9 -83 -22 -54 -15 35 -25 134 -16
169 3 14 16 26 30 30 13 3 34 22 46 41 11 19 33 43 48 54 l27 20 -37 15 c-53
23 -73 20 -110 -13z"/>
<path d="M3025 2637 c-27 -21 -13 -62 27 -77 87 -32 80 -24 78 -98 -4 -99 -1
-142 9 -142 14 0 31 92 31 163 -1 80 -14 135 -37 152 -23 18 -84 19 -108 2z"/>
<path d="M4000 2610 c-46 -46 -16 -68 112 -80 94 -9 142 -1 152 27 8 21 0 30
-44 53 -56 29 -191 29 -220 0z"/>
<path d="M3653 2587 c8 -12 42 -37 76 -55 40 -22 72 -49 88 -73 33 -50 61 -57
113 -30 26 14 59 21 93 21 59 0 157 25 157 40 0 6 -36 10 -82 10 -115 0 -196
15 -299 55 -48 18 -104 38 -124 44 -36 10 -36 10 -22 -12z"/>
<path d="M2992 2490 c-26 -24 -30 -81 -8 -99 8 -7 27 -11 43 -9 23 2 31 11 43
45 13 39 13 44 -5 62 -23 26 -45 26 -73 1z"/>
<path d="M3539 2482 c15 -29 78 -64 189 -106 118 -45 158 -52 202 -33 l35 14
-35 7 c-82 18 -181 50 -260 86 -47 21 -98 42 -114 46 -26 6 -27 5 -17 -14z"/>
<path d="M3989 2386 c-16 -34 2 -56 46 -56 42 0 65 9 65 25 0 15 -38 42 -74
51 -21 5 -28 1 -37 -20z"/>
<path d="M3925 2285 c-30 -29 -31 -46 -5 -70 17 -15 20 -29 18 -74 l-3 -56 42
1 c44 1 103 36 123 75 9 16 6 22 -24 40 -31 18 -35 24 -29 51 5 23 2 34 -12
45 -30 21 -83 16 -110 -12z"/>
<path d="M4306 2209 c-40 -27 -54 -31 -91 -27 -24 3 -49 1 -57 -4 -19 -13 26
-48 63 -48 20 0 41 -11 64 -34 44 -45 67 -51 110 -31 55 27 92 103 67 142 -9
15 -56 33 -86 33 -12 0 -44 -14 -70 -31z"/>
<path d="M3723 2053 c-15 -38 176 -170 288 -199 63 -16 122 -14 162 8 18 9 19
11 3 20 -9 5 -25 6 -36 3 -47 -15 -129 16 -238 87 -59 39 -122 77 -140 85 -29
12 -33 12 -39 -4z"/>
</g>
</svg>
