<?xml version="1.0" standalone="no"?>
<!DOCTYPE svg PUBLIC "-//W3C//DTD SVG 20010904//EN"
 "http://www.w3.org/TR/2001/REC-SVG-20010904/DTD/svg10.dtd">
<svg version="1.0" xmlns="http://www.w3.org/2000/svg"
 width="1190.000000pt" height="1280.000000pt" viewBox="0 0 1190.000000 1280.000000"
 preserveAspectRatio="xMidYMid meet">
<metadata>
Created by potrace 1.15, written by Peter Selinger 2001-2017
</metadata>
<g transform="translate(0.000000,1280.000000) scale(0.100000,-0.100000)"
fill="#000000" stroke="none">
<path d="M1365 12791 c-4 -7 9 -45 29 -86 45 -91 46 -108 9 -99 -16 4 -41 14
-58 23 -35 19 -196 19 -280 1 -27 -6 -93 -17 -145 -26 -164 -26 -165 -26 -168
-54 -2 -17 10 -40 38 -74 58 -70 58 -70 -51 -87 -41 -6 -105 -22 -143 -35
-100 -34 -208 -55 -295 -55 -55 0 -81 -5 -93 -16 -26 -23 -23 -36 19 -87 138
-167 283 -371 283 -399 0 -11 -36 -8 -64 5 -87 39 -85 -148 2 -238 11 -12 29
-39 41 -62 11 -22 47 -74 80 -114 58 -72 59 -73 35 -81 -20 -7 -22 -13 -17
-40 9 -54 48 -130 92 -179 22 -25 55 -73 71 -107 16 -33 35 -63 40 -66 6 -4
24 -32 40 -63 16 -31 48 -78 71 -104 42 -47 44 -68 8 -68 -46 0 -35 -73 24
-162 23 -35 91 -113 152 -174 106 -106 115 -112 243 -174 72 -36 132 -70 132
-76 0 -6 -14 -14 -32 -18 -151 -30 13 -172 317 -274 66 -23 138 -44 160 -48
38 -7 115 -41 115 -51 0 -2 -20 -13 -45 -24 -29 -13 -45 -26 -45 -38 0 -30 64
-80 151 -117 182 -77 319 -113 504 -130 l80 -7 -37 -15 c-31 -12 -38 -20 -38
-42 0 -46 39 -75 142 -109 153 -49 210 -56 337 -43 61 6 120 16 131 22 10 5
37 10 60 10 34 0 41 -3 38 -17 -2 -11 -18 -20 -46 -26 -33 -6 -43 -13 -48 -33
-14 -55 57 -82 264 -103 57 -6 107 -13 112 -16 24 -15 607 72 677 101 54 23
145 15 178 -16 13 -13 28 -33 31 -44 4 -12 18 -34 31 -51 14 -16 56 -77 94
-135 38 -58 85 -127 104 -155 20 -27 49 -77 66 -110 17 -33 46 -85 64 -115 19
-30 39 -66 45 -79 6 -13 20 -37 31 -53 12 -16 27 -48 34 -71 7 -23 28 -73 46
-112 39 -85 140 -370 143 -405 1 -14 5 -32 8 -40 18 -41 49 -190 58 -273 13
-129 28 -201 56 -275 13 -35 28 -96 33 -135 13 -93 29 -179 47 -243 8 -28 14
-58 14 -68 0 -9 14 -44 30 -78 17 -33 40 -92 52 -132 11 -39 43 -125 70 -191
28 -66 60 -149 73 -185 13 -36 55 -132 94 -215 39 -82 71 -154 71 -158 0 -14
-42 3 -132 54 -47 26 -99 51 -115 55 -35 8 -100 41 -131 65 -38 29 -132 153
-132 173 0 10 -19 40 -41 68 -23 27 -51 62 -63 78 -11 16 -63 77 -115 137 -92
106 -133 143 -158 143 -20 0 -143 60 -190 92 -49 33 -93 90 -75 96 20 6 13 25
-8 19 -10 -3 -24 1 -31 9 -6 8 -17 14 -23 14 -6 0 -31 11 -56 25 -145 81 -207
108 -270 116 -36 4 -90 19 -120 33 -100 47 -133 25 -61 -41 36 -32 70 -88 60
-98 -3 -2 -31 8 -64 22 -33 14 -123 41 -200 59 -77 19 -147 37 -155 41 -8 3
-32 5 -53 4 -21 -2 -43 2 -50 7 -7 5 -48 12 -92 16 -44 4 -109 14 -145 22
-125 30 -120 30 -120 -2 0 -15 7 -35 16 -45 38 -42 20 -43 -541 -24 -156 6
-193 4 -209 -7 -27 -21 -11 -43 83 -113 44 -33 81 -66 81 -72 0 -19 -51 -16
-79 3 -39 28 -340 8 -516 -34 -22 -6 -62 -15 -90 -20 -64 -14 -238 -68 -267
-83 l-22 -12 30 -26 c16 -15 62 -37 101 -49 39 -13 78 -31 87 -41 16 -17 14
-18 -41 -24 -32 -4 -87 -16 -123 -28 -109 -34 -172 -50 -237 -59 -35 -4 -82
-17 -105 -28 -24 -11 -54 -23 -68 -27 -34 -9 -176 -63 -228 -88 -76 -34 -69
-64 24 -114 l59 -32 -55 -25 c-30 -14 -60 -26 -67 -26 -7 0 -38 -13 -70 -29
-32 -15 -76 -37 -99 -48 -46 -21 -174 -117 -241 -180 -38 -35 -44 -47 -41 -75
4 -41 26 -53 134 -71 l79 -14 -30 -15 c-16 -9 -48 -30 -70 -47 -60 -47 -86
-67 -135 -103 -25 -18 -54 -52 -65 -74 -20 -40 -75 -111 -126 -163 -14 -14
-37 -44 -51 -66 -14 -22 -53 -67 -87 -100 -34 -33 -61 -64 -61 -71 0 -23 50
-34 121 -28 80 8 85 1 42 -62 -15 -23 -31 -67 -39 -109 -7 -38 -22 -88 -33
-110 -10 -22 -25 -53 -32 -70 -7 -16 -26 -49 -41 -72 -16 -23 -37 -62 -47 -85
-17 -40 -51 -76 -112 -119 -30 -21 -20 -46 27 -65 43 -18 189 -39 399 -59 146
-13 215 -23 215 -32 0 -2 -16 -17 -35 -34 -19 -17 -35 -35 -35 -40 0 -15 63
-49 90 -49 14 0 42 -12 63 -26 56 -38 142 -48 365 -41 105 3 192 3 192 0 0 -4
-16 -21 -35 -39 -52 -48 -45 -94 16 -99 19 -1 52 -9 74 -18 63 -23 324 -41
510 -34 91 3 165 4 165 2 0 -2 -11 -21 -25 -41 -14 -20 -25 -46 -25 -56 0 -25
19 -23 180 19 63 17 135 33 159 37 24 4 67 17 95 30 65 29 155 56 189 56 31 0
35 -20 12 -60 -8 -14 -14 -42 -15 -62 0 -34 3 -38 25 -38 17 0 41 15 69 43 43
42 91 60 216 82 75 13 139 29 244 62 60 18 119 33 132 33 12 0 61 21 109 46
47 26 107 53 133 60 45 14 47 14 69 -11 13 -14 34 -25 47 -25 23 0 148 87 163
114 11 21 85 72 129 91 43 18 117 74 213 161 90 82 113 96 144 89 17 -5 35 0
54 13 81 56 131 83 191 103 63 22 76 32 210 167 105 106 151 146 178 153 19 6
38 17 41 25 3 8 36 44 74 81 38 36 69 73 69 80 0 8 18 49 40 91 53 104 110
225 110 236 0 5 7 17 16 27 9 10 18 48 23 96 4 43 13 87 19 98 6 11 16 39 22
63 6 23 17 42 24 42 7 0 33 -11 57 -24 24 -14 69 -32 100 -41 31 -8 65 -25 74
-35 10 -11 24 -20 31 -20 6 0 56 -40 110 -90 55 -49 102 -90 106 -90 3 0 55
-55 115 -123 86 -96 121 -144 162 -224 67 -131 120 -212 170 -262 23 -23 41
-48 41 -57 0 -26 59 -137 83 -157 21 -19 26 -25 81 -108 16 -24 55 -73 86
-109 31 -36 69 -83 83 -105 15 -22 33 -49 40 -60 8 -11 40 -63 71 -115 68
-112 157 -242 205 -296 45 -51 111 -154 149 -231 40 -82 63 -115 142 -198 36
-38 79 -97 95 -130 18 -34 56 -85 91 -120 33 -33 78 -87 99 -120 35 -55 101
-141 197 -256 21 -25 38 -50 38 -56 0 -5 16 -30 35 -54 19 -24 35 -49 35 -56
0 -7 22 -31 50 -55 38 -33 50 -50 50 -72 0 -28 -1 -29 -45 -23 -59 9 -142 36
-155 52 -8 9 -21 9 -66 -2 -145 -37 -299 53 -429 253 -18 28 -36 61 -40 75
-12 37 -58 99 -115 154 -28 28 -71 77 -95 110 -91 126 -246 259 -417 355 -34
19 -75 49 -92 66 -30 31 -45 38 -75 35 -17 -1 -7 -81 12 -93 6 -4 9 -10 5 -13
-3 -4 -37 9 -75 28 -113 58 -202 93 -328 132 -147 45 -214 71 -240 96 -30 27
-78 35 -94 15 -8 -9 -23 -16 -35 -17 -11 0 -30 -4 -41 -8 -18 -7 -17 -10 15
-27 19 -10 57 -26 84 -36 58 -21 91 -50 152 -135 65 -90 94 -81 59 17 -8 24
-13 45 -10 48 7 8 109 -17 168 -40 133 -53 315 -150 372 -198 58 -50 93 -71
106 -64 4 2 9 22 13 44 8 50 26 52 88 7 129 -93 417 -397 464 -490 31 -61 170
-229 209 -253 l30 -19 -29 -3 c-59 -7 -188 17 -235 44 -25 15 -58 33 -74 41
-25 13 -148 142 -155 163 -2 5 -63 69 -136 142 -72 73 -149 155 -171 181 -36
46 -156 127 -187 127 -8 0 -31 9 -53 20 -49 25 -62 25 -74 1 -12 -22 -3 -32
55 -58 79 -36 169 -99 225 -158 31 -33 67 -69 79 -80 12 -11 94 -93 183 -181
89 -89 186 -176 215 -194 28 -17 50 -36 46 -41 -6 -10 -32 -5 -114 22 -59 19
-250 40 -341 38 -66 -2 -91 10 -192 90 -67 53 -127 122 -217 250 -14 20 -73
73 -130 119 -58 46 -138 110 -178 143 -74 60 -97 68 -133 48 -17 -8 -18 -13
-8 -25 7 -9 26 -22 43 -31 17 -9 51 -34 76 -57 25 -23 72 -61 105 -85 48 -34
445 -425 445 -438 0 -2 -69 -3 -152 -3 -247 0 -345 32 -442 144 -28 32 -68 69
-88 82 -22 14 -44 39 -52 59 -8 19 -19 35 -24 35 -5 0 -44 34 -87 75 -42 41
-84 75 -92 75 -20 0 -67 26 -120 66 -24 19 -50 34 -56 34 -14 0 -125 57 -147
75 -17 15 -134 45 -173 45 -14 0 -38 5 -52 12 -20 9 -28 9 -38 -1 -22 -22 8
-44 108 -76 106 -33 158 -57 190 -85 11 -10 36 -23 55 -29 78 -25 281 -173
389 -283 41 -42 178 -155 242 -201 24 -16 23 -17 -36 -16 -33 0 -143 -5 -245
-11 -164 -11 -191 -10 -237 4 -77 25 -175 85 -236 147 -80 82 -234 179 -332
209 -22 7 -53 23 -68 36 -16 13 -37 24 -48 24 -11 0 -32 6 -47 14 -15 8 -66
27 -113 44 -47 17 -103 42 -124 57 -41 27 -78 30 -83 5 -1 -9 28 -34 80 -67
103 -63 129 -77 309 -153 175 -75 289 -139 389 -219 41 -33 86 -66 100 -72
120 -57 126 -63 75 -85 -93 -38 -348 -104 -406 -104 -75 0 -147 34 -237 113
-35 30 -75 58 -89 62 -28 7 -102 54 -143 90 -14 13 -43 28 -65 35 -22 7 -74
32 -115 55 -59 34 -92 46 -155 55 -44 6 -108 21 -143 32 -59 19 -112 19 -112
-1 0 -15 177 -91 234 -101 78 -13 85 -15 174 -65 42 -23 88 -46 102 -50 13 -4
68 -36 121 -71 53 -35 109 -68 125 -74 40 -15 154 -83 154 -92 0 -5 -13 -8
-29 -8 -16 0 -48 -7 -72 -16 -53 -18 -113 -20 -199 -4 -36 7 -99 15 -140 19
-79 8 -117 28 -222 116 -94 79 -217 122 -374 132 -141 8 -210 -7 -156 -36 11
-6 84 -22 163 -36 159 -28 244 -62 353 -138 34 -24 75 -50 92 -59 16 -8 43
-23 59 -32 17 -9 40 -16 53 -16 24 0 30 -22 10 -37 -38 -28 -301 -47 -346 -24
-59 30 -74 35 -80 25 -12 -19 -167 -25 -199 -9 -18 10 -59 15 -118 15 -51 0
-112 7 -139 15 -60 18 -85 4 -35 -18 19 -8 43 -18 54 -22 24 -9 220 -34 330
-42 l80 -6 -75 -19 c-41 -11 -86 -20 -100 -21 -14 -1 -28 -5 -31 -9 -10 -14
-238 -38 -369 -38 -116 -1 -123 -2 -98 -16 110 -59 379 -51 583 18 50 17 110
34 135 39 25 4 97 17 160 30 65 12 144 21 182 20 55 -2 72 2 96 19 60 44 200
71 417 80 110 4 223 11 250 15 60 8 172 33 200 44 21 9 60 18 200 46 44 9 99
20 122 25 23 5 131 17 240 26 192 16 408 15 557 -2 l58 -7 -5 -36 c-5 -42
-101 -294 -126 -331 -9 -14 -25 -43 -36 -65 -38 -77 -148 -251 -200 -315 -90
-113 -105 -137 -125 -193 -11 -31 -30 -71 -43 -89 -39 -58 -153 -301 -166
-353 -7 -27 -26 -78 -42 -113 -18 -38 -38 -105 -49 -165 -10 -56 -27 -135 -39
-176 -11 -41 -19 -77 -16 -79 6 -7 5 -9 43 69 18 36 32 71 32 78 0 19 51 163
64 181 21 29 36 60 36 75 0 8 8 28 18 45 l19 30 34 -62 c34 -62 85 -108 120
-108 11 0 19 4 19 8 0 12 -117 192 -141 219 -21 21 -21 23 -4 65 9 24 22 50
30 58 7 8 20 38 29 66 9 28 23 60 31 70 8 10 15 25 15 33 0 7 18 35 39 63 22
27 47 74 56 103 12 42 25 62 60 90 25 21 56 60 70 88 14 29 55 93 91 142 35
50 74 110 86 135 11 25 24 47 27 50 4 3 13 21 20 40 8 19 26 60 42 91 15 30
35 84 43 120 14 56 28 94 56 149 5 12 31 16 111 18 86 2 113 -1 160 -18 46
-18 61 -20 79 -10 24 13 105 19 115 8 12 -11 -45 -180 -81 -241 -19 -32 -34
-60 -34 -62 0 -9 -133 -212 -172 -262 -22 -28 -56 -96 -77 -150 -21 -54 -50
-120 -64 -148 -15 -27 -27 -55 -27 -61 0 -15 -61 -146 -189 -409 -96 -196
-137 -285 -161 -350 -4 -11 -24 -62 -44 -112 -40 -103 -43 -128 -20 -161 24
-34 32 -27 40 34 3 31 20 93 35 138 16 44 29 89 29 98 0 10 16 42 35 73 20 30
39 63 42 73 4 9 15 29 25 45 10 15 26 39 36 55 10 15 23 41 30 59 6 17 29 55
51 83 23 29 41 58 41 65 0 11 18 57 55 140 7 17 16 44 20 60 4 17 35 86 70
155 35 69 66 142 70 164 4 21 20 52 34 70 15 17 36 44 46 60 11 16 27 39 35
51 8 12 30 46 48 76 18 30 51 79 72 109 22 30 46 75 54 100 8 25 27 87 42 138
31 100 42 111 97 93 17 -6 77 -15 132 -20 110 -11 205 -30 205 -41 0 -13 -60
-20 -164 -20 -99 0 -170 -12 -181 -30 -3 -5 3 -18 15 -30 18 -18 33 -20 135
-20 105 0 140 -8 100 -24 -8 -3 -15 -17 -15 -31 0 -51 -75 -164 -196 -297 -29
-31 -66 -82 -83 -112 -18 -30 -77 -124 -133 -208 -56 -84 -110 -173 -121 -198
-11 -25 -31 -70 -45 -100 -13 -30 -37 -93 -53 -140 -15 -47 -39 -116 -53 -153
-30 -79 -33 -122 -10 -131 28 -11 54 16 75 74 30 81 33 100 19 100 -14 0 -11
32 11 120 12 46 24 65 77 118 62 62 63 64 57 103 -8 45 -3 55 85 164 32 38 63
81 70 95 19 39 70 107 125 169 28 31 59 73 69 93 10 21 37 55 60 76 23 21 46
47 52 57 9 17 14 10 37 -51 15 -38 27 -81 27 -96 0 -66 -60 -295 -86 -328 -21
-27 -84 -180 -84 -204 0 -31 -97 -156 -121 -156 -12 0 -29 20 -50 60 -21 41
-40 62 -55 66 -37 9 -57 -2 -50 -29 3 -14 -2 -34 -14 -52 -14 -22 -20 -47 -20
-92 0 -71 -25 -136 -84 -218 -20 -27 -52 -72 -70 -100 -19 -27 -52 -68 -73
-90 -85 -86 -140 -135 -145 -129 -3 3 -4 40 -1 83 6 86 -12 141 -46 141 -21 0
-64 -51 -76 -90 -29 -90 -220 -321 -346 -416 -65 -50 -115 -120 -98 -140 22
-27 58 -16 101 31 23 25 64 61 92 79 28 19 97 80 154 136 96 95 104 101 121
86 12 -11 36 -16 73 -16 l55 0 134 113 c131 111 177 165 234 277 10 19 26 52
37 73 21 41 21 42 47 25 28 -17 111 27 131 69 8 18 37 58 65 89 64 75 93 118
101 152 4 15 10 32 13 37 4 6 13 28 20 50 8 22 24 56 36 75 12 19 25 53 29 75
4 22 16 56 25 75 10 19 28 67 41 105 12 39 36 97 51 130 21 44 29 75 29 116 0
86 17 162 41 182 17 14 40 17 118 17 121 -1 203 -19 371 -83 36 -13 105 -39
154 -57 118 -42 229 -129 296 -232 22 -33 99 -114 178 -187 77 -71 149 -142
161 -158 23 -31 263 -282 412 -432 52 -53 111 -116 131 -141 21 -25 56 -58 80
-74 24 -16 54 -44 68 -62 68 -90 141 -165 216 -224 65 -51 90 -79 115 -125 39
-74 80 -134 108 -159 43 -39 89 11 127 139 14 50 16 81 10 195 -21 383 -20
378 -49 367 -20 -8 -27 -92 -26 -319 1 -184 -6 -239 -29 -238 -13 1 -62 87
-81 142 -11 29 -26 69 -34 88 -8 19 -17 70 -19 113 l-5 78 40 34 c22 19 46 35
52 35 17 0 45 33 45 53 0 18 -135 117 -160 117 -28 0 -94 51 -145 112 -27 33
-70 84 -95 113 -25 29 -65 93 -90 142 -24 48 -60 108 -79 133 -18 25 -42 65
-53 89 -10 25 -43 73 -73 108 -68 79 -140 220 -159 310 -8 37 -17 143 -20 236
-4 146 -3 167 11 167 12 0 13 3 5 13 -27 32 18 106 80 131 24 10 61 26 83 36
22 9 76 25 120 35 44 9 89 21 100 26 11 5 74 16 140 24 181 22 228 32 328 72
79 32 101 46 161 105 37 37 74 68 82 68 8 0 29 22 46 50 18 27 37 50 42 50 14
0 146 79 176 105 14 12 39 30 55 40 46 28 165 128 165 138 0 5 9 20 20 34 11
14 20 36 20 49 0 41 11 54 44 54 17 0 42 7 54 16 22 15 22 17 7 41 -23 35 -14
48 54 83 33 16 65 38 70 49 6 10 39 42 73 70 178 145 262 223 317 295 59 78
76 119 69 167 -3 21 -9 24 -50 27 -27 2 -48 5 -48 8 0 7 57 78 95 118 17 18
52 72 80 121 27 48 64 106 82 127 18 22 33 46 33 53 0 24 -12 45 -25 45 -26 0
-25 19 1 57 16 25 24 46 21 63 -4 16 3 34 19 53 13 16 24 34 24 42 0 7 20 29
45 49 25 21 45 43 45 50 0 17 -53 28 -83 17 -12 -4 -43 -11 -69 -15 -45 -7
-48 -6 -48 15 0 12 17 47 39 78 21 31 46 72 56 91 10 19 38 65 62 101 34 51
43 72 38 91 -5 18 6 54 33 119 22 52 43 108 46 125 4 18 25 56 47 85 44 59 46
64 23 73 -33 13 -77 5 -133 -24 -61 -32 -107 -33 -118 -3 -3 8 8 44 25 81 46
102 52 130 51 227 -1 50 2 167 6 260 7 163 6 171 -13 195 -38 46 -49 15 -61
-170 -8 -114 -17 -180 -30 -215 -11 -27 -31 -99 -45 -160 -15 -60 -36 -127
-46 -148 -32 -61 -27 -89 23 -124 46 -33 103 -53 155 -53 27 0 32 -4 32 -22 0
-41 -26 -98 -100 -225 -6 -10 -17 -31 -24 -48 -39 -83 -143 -237 -193 -283
-19 -17 -23 -29 -18 -49 4 -19 1 -29 -15 -40 -25 -17 -26 -38 -2 -48 9 -4 57
-9 105 -10 49 -2 91 -6 94 -9 7 -7 -72 -172 -86 -181 -6 -3 -11 -13 -11 -22 0
-9 -23 -54 -51 -100 -28 -47 -63 -112 -79 -146 -16 -34 -59 -99 -97 -145 -90
-110 -113 -142 -113 -158 0 -22 32 -46 54 -40 12 4 40 9 63 12 60 9 65 -12 19
-75 -48 -65 -232 -235 -287 -266 -83 -45 -194 -97 -294 -137 -55 -22 -104 -43
-110 -48 -5 -4 -23 -10 -40 -14 -40 -10 -55 -24 -55 -50 0 -38 28 -66 66 -66
20 0 37 -6 40 -14 7 -19 -38 -106 -73 -137 -40 -37 -217 -169 -288 -214 -33
-22 -69 -46 -80 -55 -11 -9 -58 -29 -105 -45 -47 -15 -89 -31 -95 -35 -5 -4
-21 -10 -35 -13 -14 -3 -70 -25 -125 -49 -110 -49 -264 -92 -363 -103 -35 -3
-91 -15 -125 -25 -34 -10 -80 -21 -102 -25 -40 -6 -41 -5 -61 37 -19 39 -21
57 -17 183 2 77 8 157 14 177 10 40 50 78 81 78 11 0 37 13 57 29 62 49 202
116 311 150 58 18 146 52 195 77 50 24 98 44 107 44 9 0 54 12 99 26 47 15 94
24 109 20 18 -3 48 5 87 23 33 16 80 32 104 36 46 7 193 50 314 92 69 24 125
64 125 90 0 18 -5 17 -95 -18 -44 -17 -116 -40 -160 -51 -92 -23 -311 -75
-370 -87 -124 -27 -302 -84 -345 -112 -18 -11 -25 -14 -110 -46 -36 -13 -81
-30 -100 -38 -19 -7 -70 -26 -112 -41 -43 -16 -78 -32 -78 -36 0 -13 -139 -78
-145 -68 -8 13 14 96 45 175 14 36 28 79 34 108 10 43 75 107 141 139 33 15
65 28 70 28 6 0 42 16 80 35 68 35 259 97 340 111 22 4 56 15 75 24 19 10 60
25 90 34 30 9 83 31 118 49 35 18 116 58 180 91 64 32 126 67 138 77 11 11 58
35 104 54 45 20 146 77 224 128 77 51 162 105 188 120 53 30 90 73 86 96 -5
24 -30 15 -115 -39 -128 -82 -213 -132 -305 -180 -47 -25 -122 -66 -166 -92
-43 -27 -82 -48 -86 -48 -3 0 -54 -27 -112 -60 -58 -33 -107 -60 -110 -60 -2
0 -50 -20 -107 -44 -100 -43 -225 -86 -402 -140 -49 -15 -125 -45 -167 -67
-42 -21 -85 -39 -95 -39 -10 0 -36 -12 -58 -25 -22 -14 -43 -25 -47 -25 -14 0
-8 45 8 69 9 13 20 51 25 85 4 33 12 81 19 106 12 49 54 120 71 120 6 0 36 22
68 50 66 57 137 91 253 120 46 12 103 27 128 35 25 8 91 21 148 29 74 11 127
26 190 54 48 22 132 54 187 72 146 48 215 84 463 246 70 45 122 95 122 115 0
21 -37 5 -128 -55 -148 -98 -408 -227 -528 -262 -32 -9 -92 -29 -131 -45 -40
-16 -121 -37 -180 -48 -234 -42 -442 -110 -524 -172 -85 -63 -85 -62 -24 127
48 144 102 269 136 313 24 30 75 65 109 76 14 4 120 45 236 91 116 46 215 84
220 84 5 0 36 14 68 30 32 17 66 30 75 30 9 0 48 13 86 30 39 16 79 30 90 30
12 0 25 4 30 9 6 5 39 19 75 31 36 12 76 32 90 45 14 13 66 40 115 60 87 35
211 102 248 133 19 17 23 42 5 42 -6 0 -77 -32 -157 -71 -281 -137 -326 -158
-381 -175 -58 -18 -93 -30 -285 -99 -66 -24 -169 -61 -230 -83 -60 -22 -159
-63 -218 -91 -139 -65 -148 -66 -102 -5 14 18 25 38 25 44 0 6 11 26 24 43 21
29 116 225 116 240 0 4 20 37 45 74 38 56 56 73 103 97 31 15 66 36 77 46 11
10 49 32 85 50 36 17 95 47 132 66 37 19 73 34 80 34 17 0 264 77 303 94 17 8
55 19 85 25 62 13 230 80 230 92 0 4 17 13 38 20 20 7 48 20 62 29 78 52 107
70 118 70 6 0 16 10 23 21 9 17 8 23 -2 30 -8 5 -16 9 -19 9 -3 0 -72 -34
-153 -75 -103 -52 -197 -90 -310 -125 -89 -28 -175 -58 -192 -65 -36 -17 -137
-50 -185 -60 -73 -16 -209 -78 -295 -134 -50 -33 -91 -55 -93 -51 -2 5 6 26
16 47 11 21 26 52 35 68 28 55 45 99 63 158 16 51 22 60 58 76 23 10 68 42
101 70 88 75 144 110 202 127 28 8 56 21 62 28 6 7 23 13 38 14 16 0 45 8 66
17 21 9 66 20 100 24 61 9 158 43 350 123 97 40 135 72 102 84 -24 10 -66 -2
-151 -41 -44 -20 -128 -48 -189 -62 -172 -39 -289 -80 -434 -150 -94 -46 -147
-78 -180 -110 -44 -44 -65 -44 -43 0 6 12 15 38 21 57 22 81 48 138 78 170 17
19 39 52 48 74 31 77 107 210 138 244 32 34 174 109 231 122 27 6 79 30 115
54 36 24 82 51 101 59 19 8 64 40 100 71 36 31 89 72 118 92 57 40 60 45 37
64 -28 23 -93 -7 -164 -77 -68 -67 -202 -147 -301 -178 -30 -10 -77 -29 -103
-42 -27 -13 -51 -22 -54 -19 -3 3 9 31 27 63 17 32 45 82 61 111 16 29 29 59
29 66 0 7 7 19 14 26 8 6 23 33 32 58 9 26 31 79 49 117 30 63 65 197 65 246
0 27 -17 24 -49 -8 -19 -20 -34 -54 -50 -113 -13 -47 -31 -98 -41 -115 -10
-16 -39 -84 -65 -150 -26 -66 -54 -129 -64 -140 -16 -18 -74 -115 -110 -184
-7 -14 -21 -34 -29 -44 -15 -16 -16 -16 -29 15 -12 27 -11 42 2 101 13 55 13
76 4 108 -23 74 -59 75 -59 1 0 -18 -5 -63 -11 -100 -7 -46 -8 -92 -1 -147 5
-44 6 -84 2 -90 -4 -5 -11 -26 -15 -45 -9 -42 -37 -99 -79 -160 -17 -25 -45
-75 -63 -112 -18 -38 -37 -68 -43 -68 -12 0 -7 225 11 495 17 261 1 577 -30
608 -8 8 -16 6 -28 -6 -19 -18 -18 -6 -15 -407 1 -118 -2 -230 -8 -249 -17
-59 -24 -446 -10 -529 14 -84 2 -158 -31 -188 -10 -9 -19 -22 -19 -29 0 -7 -9
-20 -20 -30 -13 -12 -20 -31 -20 -54 0 -20 -11 -56 -25 -81 -14 -25 -32 -60
-40 -77 -18 -39 -31 -42 -40 -10 -4 12 -15 40 -26 62 -10 22 -23 70 -28 107
-5 37 -13 73 -17 79 -4 7 -9 147 -11 311 -2 165 -8 311 -13 324 -13 34 -57 33
-66 -1 -3 -13 -4 -160 -2 -327 4 -256 7 -309 21 -340 9 -21 17 -58 17 -83 0
-26 9 -67 19 -93 34 -84 64 -186 63 -210 -1 -13 -17 -51 -36 -85 -19 -34 -42
-82 -52 -107 -10 -25 -34 -72 -55 -106 -20 -34 -39 -69 -40 -79 -8 -40 -29
-24 -63 47 -51 108 -63 199 -65 503 -2 190 -7 279 -18 329 -10 45 -14 101 -11
163 5 109 -6 118 -54 46 -26 -38 -36 -44 -114 -68 -47 -14 -93 -25 -102 -23
-11 2 29 48 125 144 126 126 223 247 223 278 0 6 24 42 52 78 29 37 70 93 90
125 20 32 51 75 69 95 44 51 33 62 -53 55 -62 -5 -68 -4 -64 11 3 9 12 42 20
72 22 87 25 90 62 90 40 0 54 19 79 105 26 96 83 200 148 272 32 38 76 91 97
119 36 48 78 84 99 84 5 0 12 -12 15 -26 20 -79 109 -184 157 -184 22 0 46 29
54 68 6 29 96 162 114 170 3 1 41 25 83 52 43 28 80 50 84 50 3 0 19 11 36 25
16 14 55 32 86 40 31 9 71 22 87 30 17 8 49 19 72 25 23 6 45 15 48 20 10 16
25 12 25 -6 0 -10 13 -58 29 -108 16 -50 32 -113 36 -141 3 -27 13 -70 20 -95
24 -78 45 -183 45 -226 0 -33 6 -46 34 -73 42 -40 60 -36 73 16 13 58 37 55
61 -9 33 -91 51 -179 62 -303 14 -177 13 -255 -5 -276 -14 -15 -14 -18 1 -34
30 -29 140 -2 227 57 68 46 77 55 77 81 0 27 -32 21 -112 -23 -40 -22 -76 -40
-80 -40 -8 0 -13 41 -28 215 -15 170 -24 222 -55 300 l-26 65 25 56 c14 31 26
60 26 65 0 20 -47 7 -96 -27 -28 -20 -60 -34 -70 -32 -20 3 -27 29 -74 248
-33 151 -68 264 -94 302 -14 20 -13 23 10 45 53 49 4 60 -98 22 -29 -12 -78
-29 -108 -38 -83 -26 -193 -71 -210 -86 -8 -7 -34 -22 -57 -34 -70 -35 -143
-92 -236 -184 -86 -85 -90 -88 -107 -70 -9 10 -25 39 -34 65 -20 54 -57 98
-84 98 -21 0 -142 -119 -210 -206 -39 -49 -99 -101 -107 -92 -3 2 0 20 5 39
28 111 32 166 15 225 -10 33 -19 65 -21 72 -6 22 -31 13 -86 -33 -30 -25 -58
-45 -63 -45 -8 0 0 145 14 235 30 195 31 227 13 320 -12 60 -23 91 -33 93 -8
1 -41 -11 -74 -27 -33 -16 -63 -27 -67 -24 -14 8 -8 57 17 131 13 40 27 94 30
120 4 26 15 76 25 112 23 81 43 214 38 259 -5 54 -25 58 -100 22 -36 -17 -69
-31 -73 -31 -4 0 -5 12 -2 28 34 171 37 198 37 390 0 112 5 235 11 274 10 66
10 72 -10 92 -29 28 -51 13 -71 -47 -8 -25 -23 -54 -33 -65 -24 -26 -76 -48
-87 -36 -5 5 -4 45 2 93 6 55 6 91 0 105 -5 12 -18 48 -27 81 -10 33 -30 98
-46 144 -16 45 -29 92 -29 102 0 32 -70 222 -91 248 -16 20 -22 21 -35 10 -8
-7 -22 -26 -31 -43 -17 -35 -82 -106 -96 -106 -6 0 -34 -16 -64 -36 -57 -38
-233 -123 -294 -143 -19 -6 -53 -27 -74 -46 -38 -36 -62 -41 -32 -7 10 10 17
24 17 31 0 6 6 14 14 17 8 3 31 40 52 82 20 42 47 90 60 105 37 43 31 55 -28
63 -52 7 -52 7 -28 23 44 28 131 115 148 146 8 16 28 46 43 65 32 41 169 305
169 326 0 21 -43 35 -79 24 -18 -5 -33 -5 -36 1 -8 12 33 159 49 179 35 43 67
117 92 212 24 91 26 109 14 123 -8 10 -23 15 -38 12 -14 -3 -26 1 -29 10 -5
12 29 104 58 156 10 19 27 132 35 240 6 75 -2 86 -50 67 l-28 -10 7 37 c3 21
19 67 35 103 65 150 73 221 37 310 -24 59 -31 62 -100 44 l-29 -7 3 184 c2
101 0 209 -3 239 -20 173 -32 206 -66 182 -9 -6 -30 -19 -47 -28 -16 -10 -58
-41 -92 -69 -52 -45 -70 -54 -115 -60 -29 -3 -66 -12 -83 -19 -16 -8 -45 -16
-63 -20 -31 -5 -32 -4 -26 20 4 16 1 31 -11 44 -16 18 -18 18 -68 -12 -29 -17
-63 -38 -77 -48 -14 -10 -57 -30 -95 -45 -39 -15 -90 -35 -115 -45 -42 -17
-87 -23 -153 -21 -27 1 -27 1 -12 31 19 37 19 39 -7 49 -15 5 -43 0 -87 -15
-36 -13 -73 -24 -82 -24 -16 0 -256 -120 -349 -174 -69 -40 -78 -36 -76 32 1
57 1 57 -30 60 -21 2 -45 -7 -80 -31 -27 -18 -56 -37 -64 -41 -80 -39 -188
-123 -286 -225 -81 -83 -103 -118 -89 -140 13 -22 40 -9 94 47 71 72 182 160
241 190 24 12 57 35 73 50 l28 27 17 -21 c59 -72 118 -70 224 6 22 16 64 34
93 40 29 6 59 18 66 26 17 21 67 46 109 54 19 4 43 11 52 15 14 6 19 0 24 -34
8 -51 15 -56 45 -32 18 13 54 21 136 29 91 8 125 16 175 40 35 17 90 43 123
58 33 16 63 30 68 32 4 2 7 -12 7 -32 0 -43 6 -44 93 -16 34 10 89 26 122 35
33 9 86 30 117 46 31 16 63 29 71 29 7 0 19 11 25 24 15 33 50 43 67 19 40
-53 47 -186 22 -396 -10 -77 -17 -150 -17 -163 0 -30 21 -31 90 -4 62 25 64
21 58 -88 -4 -56 -15 -104 -42 -177 -21 -55 -42 -104 -46 -110 -18 -23 -61
-146 -54 -156 4 -6 19 -8 38 -5 71 15 71 15 74 -34 4 -50 -24 -140 -68 -224
-17 -31 -30 -65 -30 -76 0 -12 -7 -35 -16 -51 -8 -17 -14 -45 -12 -62 3 -32 4
-32 51 -29 42 3 47 2 47 -18 0 -12 -18 -59 -40 -105 -22 -46 -40 -87 -40 -92
0 -14 -77 -161 -110 -210 -33 -49 -33 -65 3 -87 12 -8 22 -7 37 2 49 30 52 8
9 -84 -55 -120 -125 -207 -241 -301 -96 -76 -103 -133 -17 -133 22 0 39 -5 39
-10 0 -43 -240 -409 -312 -476 -18 -17 -77 -61 -130 -98 -80 -55 -98 -72 -98
-93 0 -24 2 -25 50 -21 28 1 50 3 50 3 0 0 -56 -56 -124 -125 -174 -176 -195
-195 -246 -220 -25 -12 -56 -30 -70 -39 -14 -10 -45 -23 -70 -30 -171 -49
-336 -119 -347 -147 -16 -43 78 -79 132 -50 33 18 65 13 65 -11 0 -56 -154
-164 -335 -236 -111 -44 -169 -53 -232 -37 -42 11 -55 10 -107 -8 -80 -29
-126 -65 -126 -101 0 -36 17 -51 57 -51 69 0 29 -34 -94 -82 -266 -102 -386
-132 -463 -118 -25 5 -79 7 -120 4 -82 -6 -194 18 -323 70 -36 14 -97 29 -136
32 -39 4 -71 10 -71 15 0 4 19 36 43 71 35 53 53 68 106 95 79 38 120 43 236
26 217 -32 237 -34 251 -22 17 14 18 45 2 55 -13 8 -95 19 -277 36 -106 10
-132 10 -182 -3 -33 -9 -59 -12 -59 -7 0 16 92 123 138 161 77 62 98 70 207
75 55 2 110 10 122 16 15 8 61 9 150 3 70 -4 169 -5 218 -1 67 4 101 1 132
-10 38 -13 47 -13 78 0 20 8 41 14 48 13 7 -1 26 1 42 5 38 10 205 73 224 85
20 13 6 45 -17 38 -9 -3 -64 -19 -121 -37 l-103 -32 -352 -3 c-193 -2 -384 -8
-425 -14 -41 -6 -76 -9 -78 -7 -9 8 29 68 46 73 9 2 27 20 41 39 13 20 66 68
119 107 l95 72 285 7 c282 7 297 8 581 57 30 5 82 17 115 25 33 9 74 16 92 16
18 0 56 9 85 19 29 11 87 27 128 35 160 33 237 63 248 95 4 11 -5 13 -47 8
-46 -5 -93 -16 -321 -72 -30 -7 -73 -16 -95 -20 -22 -3 -76 -17 -120 -30 -215
-64 -483 -87 -868 -76 -37 1 -33 8 80 129 64 69 109 107 151 130 33 18 62 38
65 45 13 33 190 62 457 72 158 7 219 17 363 60 127 39 150 46 182 61 17 7 63
20 103 28 40 8 84 24 99 36 14 11 35 20 46 20 47 0 199 73 250 119 51 47 30
53 -72 20 -36 -11 -78 -27 -92 -34 -32 -17 -204 -81 -284 -105 -33 -10 -118
-39 -189 -64 -135 -47 -201 -58 -421 -71 -60 -4 -161 -16 -223 -27 -63 -10
-116 -17 -119 -14 -12 11 9 37 57 72 27 20 50 39 50 44 0 14 99 104 156 142
51 35 115 59 239 89 28 7 59 21 71 31 13 12 50 22 104 29 46 5 109 18 139 28
31 10 84 21 119 25 34 3 80 15 101 26 22 11 97 35 169 54 71 18 139 39 150 45
11 6 28 11 37 11 31 0 170 61 207 91 20 16 41 29 46 29 12 0 52 44 52 58 0 19
-25 14 -102 -22 -135 -63 -194 -85 -354 -131 -87 -25 -178 -53 -202 -61 -23
-9 -79 -24 -125 -34 -45 -10 -161 -41 -257 -70 -211 -63 -313 -91 -318 -85 -3
2 26 40 64 83 38 44 94 109 124 146 30 37 60 73 65 79 6 7 18 24 27 38 26 40
134 117 176 125 41 7 191 60 262 92 25 12 70 24 100 28 30 4 84 22 120 40 36
18 108 45 160 60 64 18 128 46 197 86 110 65 128 80 119 103 -11 29 -63 16
-172 -45 -60 -33 -131 -67 -159 -75 -101 -31 -121 -38 -175 -63 -70 -32 -169
-68 -240 -88 -30 -9 -66 -22 -80 -29 -38 -19 -152 -57 -157 -51 -6 6 23 61 61
116 34 50 47 71 71 115 8 17 32 59 53 94 l37 64 129 43 c71 23 139 47 150 53
12 5 46 15 76 22 30 6 80 24 110 39 30 14 71 33 90 40 19 7 51 25 70 39 36 27
80 56 161 107 129 81 179 127 179 165 0 29 -16 23 -89 -30 -100 -73 -132 -93
-343 -205 -48 -26 -117 -58 -155 -72 -37 -14 -86 -34 -108 -44 -65 -29 -179
-70 -197 -70 -14 0 -11 9 15 46 43 61 87 146 87 167 0 4 15 30 34 59 35 55 74
94 141 144 22 16 53 39 70 51 16 12 55 36 85 53 30 17 70 42 89 55 19 14 43
25 53 25 11 0 32 8 46 19 15 10 38 22 52 26 35 10 85 42 136 86 24 20 61 45
82 54 31 14 43 28 59 66 12 26 18 50 16 53 -9 9 -59 -22 -76 -47 -9 -14 -51
-44 -94 -68 -43 -24 -91 -50 -108 -60 -146 -80 -196 -109 -235 -136 -71 -48
-160 -95 -160 -86 0 5 18 27 41 48 22 22 47 52 55 67 7 15 22 29 32 32 12 4
23 24 31 57 10 39 28 67 73 117 32 36 73 84 89 107 17 23 42 48 55 56 34 18
70 77 56 91 -8 8 -18 6 -34 -6 -69 -50 -121 -97 -165 -151 -28 -33 -63 -71
-77 -85 -15 -14 -53 -68 -83 -120 -64 -108 -81 -130 -99 -130 -11 0 -10 8 1
41 8 23 15 49 15 59 0 9 13 41 29 71 15 30 34 72 41 94 13 42 47 110 80 160
22 34 40 72 40 85 0 10 33 62 78 125 40 56 72 120 72 145 0 69 -104 -57 -207
-249 -89 -166 -152 -318 -220 -530 -41 -127 -68 -194 -98 -241 -23 -36 -54
-90 -68 -120 -31 -65 -41 -81 -85 -137 -18 -24 -30 -47 -27 -53 3 -5 2 -10 -4
-10 -6 0 -16 10 -22 22 -14 25 -5 258 12 321 5 20 14 65 18 100 5 34 16 100
24 147 37 199 40 350 7 350 -16 0 -34 -107 -45 -265 -4 -49 -12 -119 -20 -155
-32 -154 -47 -267 -57 -453 l-11 -199 -45 -36 c-42 -34 -43 -38 -38 -77 6 -36
3 -47 -27 -86 -18 -24 -42 -58 -53 -75 -65 -105 -78 -120 -100 -111 -13 5 -3
630 12 742 29 217 106 529 140 567 14 15 15 23 6 43 -6 14 -19 25 -27 25 -36
0 -113 -250 -154 -500 -40 -247 -44 -302 -43 -598 1 -253 3 -297 17 -319 15
-22 15 -26 1 -46 -9 -12 -29 -40 -43 -62 -75 -109 -266 -335 -283 -335 -4 0
-10 80 -13 178 -4 97 -11 263 -17 369 -11 200 -3 303 34 458 30 124 47 212 56
290 4 44 15 107 24 140 9 33 16 79 16 102 0 23 5 54 11 70 13 33 13 33 40 195
12 70 18 135 14 145 -6 17 -8 16 -24 -4 -18 -21 -89 -332 -111 -482 -6 -41
-13 -77 -15 -82 -6 -9 -44 -215 -81 -439 -25 -153 -25 -160 -21 -590 5 -488
10 -447 -74 -535 -26 -27 -91 -95 -143 -150 -94 -98 -96 -99 -96 -67 0 33 -16
42 -37 21 -9 -9 -14 -5 -20 17 -12 45 -7 946 6 1034 34 222 51 320 66 370 19
62 35 135 37 165 1 11 6 26 11 32 8 12 40 169 54 271 6 42 -6 57 -24 30 -13
-22 -63 -181 -72 -233 -15 -85 -32 -168 -46 -225 -23 -97 -45 -224 -45 -261 0
-20 -7 -55 -15 -78 -40 -115 -54 -871 -21 -1136 14 -105 14 -131 4 -134 -7 -2
-62 -52 -123 -111 -133 -128 -172 -157 -188 -141 -17 17 -16 885 1 996 6 44
19 136 27 205 8 69 20 141 26 160 31 101 46 347 22 372 -24 23 -34 -7 -44
-123 -5 -63 -16 -137 -24 -165 -15 -51 -19 -80 -35 -238 -5 -49 -12 -96 -14
-105 -3 -9 -14 -99 -25 -201 -18 -169 -19 -216 -11 -550 5 -201 13 -386 18
-412 l9 -46 -65 -59 c-118 -106 -176 -153 -189 -153 -20 0 -43 55 -43 104 0
25 -5 57 -12 73 -6 16 -15 112 -19 218 -4 105 -12 248 -18 319 -6 74 -9 230
-6 363 6 235 2 259 -29 211 -34 -54 -39 -128 -32 -440 13 -552 10 -519 62
-833 9 -55 18 -105 21 -111 2 -5 -19 -37 -47 -70 -130 -151 -144 -155 -171
-49 -51 203 -72 313 -85 440 -8 77 -19 157 -25 178 -5 21 -14 74 -19 118 -9
78 -21 109 -42 109 -15 0 -4 -276 15 -400 9 -58 23 -148 30 -200 17 -114 50
-250 83 -342 l23 -67 -29 -73 c-16 -39 -36 -78 -44 -86 -15 -15 -13 -18 -101
148 -93 175 -151 342 -192 555 -19 99 -41 200 -48 225 -9 28 -15 94 -15 175
-1 107 3 142 21 200 17 54 21 91 20 161 -2 51 2 94 7 97 14 9 50 -21 78 -64
13 -21 31 -39 38 -39 8 0 32 16 53 36 l38 36 -28 22 c-34 27 -36 72 -5 127 21
37 21 39 3 59 -16 18 -17 35 -13 182 5 129 10 176 26 223 12 33 26 87 31 119
6 33 18 70 27 83 9 15 14 41 13 68 -4 58 31 103 44 55 3 -11 14 -20 25 -20 10
0 27 9 37 20 10 11 24 20 31 20 7 0 19 10 25 23 6 12 22 36 36 54 l24 32 20
-20 c27 -27 69 -22 88 12 13 24 13 31 -3 68 l-19 41 35 72 c19 40 52 123 73
183 21 61 54 132 73 160 19 27 44 70 55 95 20 46 44 80 58 80 4 0 10 -19 14
-42 10 -62 28 -85 70 -90 52 -6 68 8 55 51 -5 19 -6 39 -3 45 41 68 472 516
497 516 5 0 6 -17 2 -39 -8 -54 8 -66 66 -50 61 17 65 24 39 60 l-23 32 26 63
c25 63 32 104 20 117 -20 20 -107 -56 -405 -355 -141 -142 -261 -258 -267
-258 -6 0 -13 8 -16 18 -4 9 -15 28 -25 41 -15 20 -21 22 -40 12 -28 -15 -76
-90 -142 -222 -28 -57 -64 -129 -79 -159 -15 -30 -40 -86 -55 -125 -56 -147
-55 -146 -79 -130 -19 13 -25 13 -42 1 -19 -14 -50 -68 -76 -133 -16 -40 -21
-41 -47 -6 l-21 26 -25 -23 c-34 -32 -92 -131 -100 -172 -10 -51 -65 -245 -91
-325 -19 -58 -26 -109 -35 -254 -5 -100 -15 -191 -21 -202 -9 -17 -16 -19 -62
-12 -28 4 -62 8 -75 9 l-25 1 -4 -225 c-8 -450 -5 -577 17 -710 34 -206 56
-287 130 -485 73 -195 125 -296 217 -423 14 -18 15 -27 5 -45 -6 -12 -16 -78
-22 -147 -6 -69 -13 -152 -16 -185 -9 -110 -32 -92 -52 40 -12 76 -118 422
-146 475 -7 14 -23 54 -35 90 -21 61 -131 292 -151 316 -5 6 -16 34 -24 61 -8
27 -28 68 -45 91 -16 22 -32 54 -36 69 -10 41 -53 123 -64 123 -6 0 -23 28
-40 63 -16 34 -48 87 -70 117 -74 98 -75 102 -45 168 15 31 34 70 43 87 8 16
26 63 38 105 12 41 45 140 74 220 50 142 51 148 57 285 3 78 1 178 -5 226 -11
91 0 181 28 214 30 37 -21 340 -72 425 -12 19 -34 50 -50 68 -15 18 -28 38
-28 44 0 7 -11 28 -23 47 -13 20 -31 48 -40 63 -20 32 -45 28 -88 -15 -16 -16
-31 -28 -33 -26 -17 19 -61 131 -102 257 -48 151 -50 155 -124 245 -41 50 -82
109 -90 132 -10 26 -22 41 -36 43 -18 3 -22 -5 -30 -55 -5 -32 -13 -58 -19
-57 -5 1 -26 28 -45 60 -52 88 -271 304 -343 337 -31 15 -89 56 -129 92 -40
36 -79 65 -86 65 -22 0 -25 -28 -8 -79 18 -57 21 -101 6 -101 -13 0 -36 23
-103 103 -27 32 -91 95 -142 141 -82 72 -100 84 -151 95 -47 11 -66 21 -95 52
-61 66 -121 47 -85 -27 19 -42 20 -45 3 -38 -8 3 -50 46 -93 97 -128 149 -145
165 -233 224 -107 73 -184 105 -208 88 -15 -11 -15 -20 -5 -95 15 -102 37
-152 75 -165 35 -11 58 1 72 40 8 23 6 30 -15 46 -45 34 -50 40 -50 54 0 25
35 17 66 -16 16 -17 42 -38 59 -46 53 -28 305 -296 338 -359 22 -42 64 -69 82
-54 11 9 13 27 8 73 -6 57 -5 60 13 52 10 -4 33 -13 49 -19 77 -28 218 -141
275 -221 43 -60 92 -108 147 -145 l43 -29 25 33 c21 28 23 37 15 66 -5 19 -8
36 -5 38 6 7 134 -65 191 -108 103 -77 283 -302 304 -380 15 -53 47 -100 70
-100 24 0 43 34 35 61 -7 21 12 89 24 89 10 0 73 -93 99 -146 12 -22 39 -99
62 -170 23 -71 49 -144 58 -162 9 -18 15 -55 14 -85 -1 -36 6 -68 23 -104 36
-79 53 -72 99 37 22 50 42 90 47 90 4 0 20 -21 35 -47 15 -27 37 -61 49 -78
44 -60 59 -107 77 -240 9 -66 8 -87 -5 -125 -29 -82 -36 -177 -30 -371 5 -159
4 -194 -9 -222 -34 -71 -48 -110 -68 -189 -12 -45 -28 -94 -36 -109 -8 -16
-14 -37 -14 -49 0 -22 -72 -171 -100 -207 -15 -19 -20 -20 -29 -9 -9 11 -7 48
9 157 24 160 28 459 11 749 -10 166 -23 230 -46 230 -13 0 -15 -57 -12 -407 2
-414 -5 -525 -37 -569 -12 -15 -16 -14 -55 21 -44 40 -100 128 -120 187 -6 19
-22 41 -35 48 -13 7 -34 26 -47 44 -21 28 -24 46 -30 181 -8 172 -25 326 -46
405 -8 30 -18 71 -23 90 -5 20 -16 89 -24 155 -15 118 -50 328 -61 369 -11 41
-49 116 -58 116 -12 0 -4 -74 21 -195 12 -55 31 -167 42 -250 11 -82 31 -206
44 -275 22 -115 52 -417 42 -427 -8 -8 -42 22 -106 94 -36 41 -84 93 -107 116
-51 51 -69 92 -83 189 -6 40 -17 96 -25 123 -8 28 -30 115 -50 194 -19 79 -48
172 -64 205 -16 34 -34 79 -41 101 -7 22 -36 92 -66 156 -29 63 -58 137 -64
165 -7 27 -33 93 -57 147 -25 54 -46 110 -47 125 -1 15 -13 45 -27 67 -14 22
-37 72 -52 110 -37 94 -77 165 -104 183 -44 28 -39 -13 16 -127 28 -60 51
-111 51 -115 0 -4 23 -59 51 -122 28 -62 68 -160 89 -216 21 -57 65 -166 99
-243 84 -190 145 -377 182 -560 41 -199 36 -211 -44 -123 -34 36 -73 69 -85
73 -13 4 -48 29 -78 56 -30 27 -79 65 -109 85 -30 20 -55 39 -55 42 0 3 7 13
15 22 13 15 13 23 -4 71 -10 30 -22 80 -26 110 -11 85 -25 131 -55 179 -27 44
-43 79 -91 205 -13 33 -28 67 -34 75 -7 8 -28 56 -47 105 -61 153 -95 229
-146 332 -28 54 -70 142 -93 196 -47 105 -76 143 -114 153 -63 16 -72 -22 -17
-75 42 -42 193 -334 266 -516 24 -60 76 -189 116 -285 61 -147 153 -402 172
-475 3 -11 9 -28 13 -37 4 -11 3 -18 -4 -18 -6 0 -11 6 -11 14 0 18 -150 143
-241 202 -73 47 -74 48 -184 254 -43 80 -94 170 -113 200 -20 30 -56 87 -80
125 -41 64 -143 216 -200 297 -29 42 -65 87 -124 156 -27 30 -48 59 -48 63 0
9 -84 134 -108 162 -21 24 -42 21 -42 -5 0 -34 52 -115 227 -350 88 -117 171
-233 185 -258 45 -81 129 -214 159 -251 16 -20 29 -41 29 -45 0 -5 18 -45 40
-89 22 -44 40 -83 40 -87 0 -29 -163 35 -312 120 -88 51 -98 59 -98 85 0 21
-14 43 -55 85 -30 31 -85 98 -122 150 -119 166 -167 230 -215 284 -51 57 -108
137 -108 152 0 20 -165 227 -199 250 -46 31 -91 44 -91 25 0 -8 39 -62 88
-120 48 -58 129 -161 180 -230 50 -68 139 -185 197 -259 58 -74 120 -155 137
-180 17 -25 53 -70 80 -99 26 -30 48 -58 48 -63 0 -13 -83 18 -124 45 -21 15
-46 27 -55 27 -9 1 -38 9 -66 19 -27 10 -94 34 -148 53 -107 39 -221 108 -246
148 -22 36 -145 181 -267 314 -55 61 -127 143 -159 181 -129 154 -151 177
-174 186 -40 16 -47 -4 -18 -53 14 -24 88 -111 165 -195 184 -200 382 -438
382 -459 0 -13 -3 -14 -13 -5 -13 10 -98 56 -192 104 -22 11 -65 37 -95 57
-74 50 -239 132 -251 125 -5 -4 -6 -13 -1 -20 13 -24 163 -133 227 -165 33
-17 71 -39 85 -49 14 -10 73 -44 133 -76 59 -31 105 -60 102 -65 -6 -10 -126
-7 -385 10 -125 8 -186 17 -250 37 -85 25 -143 33 -156 20 -11 -11 18 -39 61
-58 89 -39 417 -79 657 -79 124 0 139 2 155 20 19 19 20 19 107 -10 49 -17 94
-30 99 -30 20 0 276 -105 377 -155 58 -28 117 -55 133 -59 15 -3 27 -10 27
-15 0 -9 -59 -16 -215 -26 -85 -6 -321 -34 -467 -55 -135 -20 -412 -6 -508 25
-25 8 -87 21 -139 30 -89 14 -96 14 -138 -5 -51 -23 -55 -37 -10 -45 17 -3 88
-14 157 -25 69 -11 157 -28 195 -37 84 -21 317 -24 410 -5 103 20 401 51 605
62 135 8 202 16 217 26 15 9 24 10 29 3 7 -13 112 -61 169 -79 29 -9 63 -36
122 -97 74 -76 83 -83 101 -72 16 10 23 10 36 0 9 -8 16 -17 16 -22 0 -14 -83
-31 -125 -26 -51 7 -273 -17 -390 -43 -49 -11 -139 -24 -200 -30 -60 -6 -159
-20 -220 -31 -60 -11 -137 -21 -170 -23 -33 -2 -91 -11 -130 -19 -38 -9 -108
-17 -155 -17 -77 0 -109 4 -245 25 -22 3 -47 1 -55 -4 -28 -19 3 -45 76 -64
58 -16 95 -18 234 -13 91 3 183 10 205 16 22 6 90 17 150 25 61 8 216 30 345
50 320 48 362 53 540 64 85 5 167 14 182 20 26 10 33 6 110 -67 46 -42 109
-99 141 -126 65 -54 64 -69 -5 -68 -53 1 -215 -15 -283 -29 -27 -5 -99 -16
-160 -24 -101 -13 -307 -45 -415 -65 -25 -5 -73 -9 -107 -9 -34 -1 -72 -5 -85
-9 -26 -10 -160 -2 -433 23 -190 17 -245 14 -245 -15 0 -20 47 -29 206 -40 88
-6 191 -15 229 -20 44 -6 131 -6 235 1 156 10 252 20 605 67 399 54 409 55
528 47 l116 -7 111 -114 c60 -63 110 -120 110 -129 0 -14 -23 -22 -130 -44
-134 -26 -221 -40 -301 -46 -48 -4 -104 -11 -125 -16 -22 -5 -102 -16 -179
-24 -77 -8 -176 -20 -220 -26 -123 -17 -428 -11 -583 11 -139 19 -165 18 -160
-8 4 -19 31 -27 178 -53 103 -19 140 -20 355 -14 291 7 471 20 630 45 66 10
165 24 220 30 55 6 136 18 180 26 44 8 116 15 159 17 l79 2 26 -34 c14 -19 50
-58 80 -85 67 -64 141 -163 141 -191 0 -12 -6 -29 -13 -39 -12 -16 -48 -18
-427 -27 -409 -8 -456 -11 -555 -29 -27 -5 -117 -17 -200 -26 -187 -20 -593
-17 -637 5 -16 8 -28 18 -28 23 0 24 -42 48 -84 48 -24 0 -66 9 -93 21 -76 32
-222 85 -288 104 -65 18 -150 58 -160 76 -4 6 -2 16 4 22 6 6 11 24 11 39 0
24 -4 28 -27 28 l-27 0 27 28 c44 46 37 68 -30 87 -64 18 -318 139 -328 155
-4 6 -24 22 -45 35 -35 22 -93 89 -142 163 -22 33 -8 52 36 52 18 0 37 5 44
12 18 18 15 66 -5 83 -10 9 -55 47 -100 86 -63 54 -89 85 -107 125 -14 30 -36
69 -50 87 -14 19 -26 38 -26 43 0 5 -20 34 -45 64 -54 66 -58 90 -14 90 48 0
69 16 69 54 0 27 -8 40 -37 65 -21 17 -47 40 -58 50 -11 10 -40 32 -65 49 -63
42 -99 84 -160 185 -73 120 -60 130 91 72 64 -25 79 -17 79 42 0 59 -18 89
-102 177 -34 36 -78 87 -97 113 -39 54 -114 183 -109 188 19 16 82 38 159 54
248 54 318 71 364 90 50 19 50 19 49 65 0 28 -7 52 -18 64 -16 19 -16 20 1 26
41 16 304 47 383 45 137 -3 153 -2 190 8 28 7 36 14 38 37 2 18 -4 40 -17 57
-32 43 -28 62 12 54 50 -10 130 -38 147 -51 8 -6 62 -35 119 -62 99 -49 105
-50 133 -36 31 16 30 15 32 94 l1 55 49 3 c54 4 177 -30 197 -54 6 -8 19 -14
29 -14 10 0 23 -7 30 -15 7 -8 17 -15 22 -15 5 0 28 -9 50 -20 71 -34 104 -5
65 55 -12 19 -31 38 -42 41 -11 4 -81 33 -156 65 -116 49 -148 59 -221 65
-111 9 -130 -1 -127 -61 3 -45 -12 -75 -37 -75 -17 0 -132 58 -159 80 -35 29
-110 51 -197 57 -61 4 -87 2 -93 -6z m7785 -2825 c0 -43 19 -116 82 -316 15
-47 22 -105 27 -210 7 -178 20 -207 85 -200 10 1 29 14 42 30 25 29 80 57 91
46 20 -19 8 -319 -16 -427 -40 -177 -44 -207 -31 -239 7 -17 16 -28 19 -23 3
5 29 14 56 21 28 7 63 22 79 34 l29 21 -7 -79 c-6 -79 -42 -247 -76 -359 -41
-135 -46 -255 -10 -255 18 0 72 31 110 61 19 16 43 29 52 29 40 0 14 -301 -47
-540 -35 -139 -36 -160 -2 -160 12 0 65 30 117 65 94 65 95 65 98 39 4 -33
-35 -220 -54 -256 -8 -15 -19 -50 -25 -79 -6 -29 -23 -73 -38 -98 -44 -78 -69
-133 -86 -191 -9 -30 -24 -66 -33 -80 -9 -14 -19 -34 -22 -45 -3 -10 -16 -22
-29 -25 -13 -3 -29 -14 -35 -23 -17 -28 25 -57 80 -57 23 0 45 -4 48 -9 3 -5
-19 -44 -49 -87 -29 -44 -75 -113 -100 -154 -60 -95 -183 -248 -227 -280 -18
-13 -41 -35 -51 -47 -11 -13 -36 -32 -57 -43 -35 -18 -90 -72 -90 -89 0 -19
84 -62 131 -68 27 -3 49 -9 49 -13 0 -11 -59 -81 -160 -188 -25 -26 -70 -75
-100 -108 -49 -53 -136 -114 -162 -114 -16 0 -392 -191 -400 -203 -12 -20 12
-46 51 -57 22 -6 50 -19 63 -29 l23 -19 -21 -29 c-34 -47 -291 -161 -434 -192
-30 -7 -66 -17 -80 -22 -14 -5 -68 -13 -120 -18 -52 -6 -124 -15 -160 -20
-195 -32 -197 -32 -283 -12 -45 10 -110 25 -145 32 -59 12 -63 15 -72 49 -14
50 -13 54 19 118 37 73 55 89 176 150 211 106 274 133 361 151 49 11 117 31
150 45 34 14 95 29 136 34 49 6 116 26 198 59 69 28 157 60 197 72 86 27 137
59 141 89 4 28 1 28 -106 -8 -50 -16 -103 -30 -119 -30 -15 0 -48 -11 -73 -24
-90 -48 -175 -78 -254 -90 -93 -15 -283 -62 -308 -76 -10 -6 -26 -10 -35 -10
-10 0 -99 -40 -198 -89 -99 -49 -191 -93 -204 -96 -22 -7 -23 -6 -16 36 8 56
42 177 58 208 16 32 116 109 200 154 37 20 85 48 107 62 22 14 42 25 45 25 4
0 32 12 63 26 113 52 139 63 242 104 58 23 110 46 115 50 6 4 19 10 30 13 11
3 67 26 125 52 178 79 252 106 330 121 41 8 102 27 135 43 33 16 71 32 85 36
14 4 36 14 50 23 13 8 60 33 103 55 56 28 77 43 75 55 -6 32 -54 25 -155 -24
-167 -80 -196 -91 -278 -109 -83 -18 -289 -89 -315 -109 -16 -13 -103 -50
-260 -111 -92 -36 -280 -115 -317 -133 -84 -41 -151 -79 -190 -108 -17 -13
-35 -24 -39 -24 -4 0 -36 -19 -71 -41 -35 -23 -66 -39 -70 -35 -4 3 3 27 15
54 11 26 26 83 33 127 7 44 20 96 31 115 10 19 18 38 18 42 0 9 92 96 155 146
28 22 136 83 240 137 105 53 216 114 247 135 32 21 77 43 100 48 24 6 70 22
103 36 33 14 68 26 77 26 10 0 39 13 64 30 26 16 64 32 83 36 62 10 209 63
299 108 48 24 107 53 132 65 25 13 52 27 60 32 8 5 24 13 36 18 11 5 47 28 79
50 32 23 63 41 68 41 20 0 146 90 152 109 8 26 -12 64 -28 55 -7 -4 -39 -28
-72 -52 -33 -25 -87 -58 -120 -73 -34 -15 -67 -35 -75 -44 -15 -18 -376 -197
-430 -213 -19 -6 -61 -16 -92 -22 -32 -6 -83 -24 -115 -40 -32 -15 -103 -45
-158 -65 -55 -20 -143 -60 -195 -88 -52 -28 -158 -83 -235 -122 -155 -79 -193
-102 -277 -170 l-58 -47 0 39 c1 88 59 300 96 355 43 62 203 208 283 258 40
25 87 56 106 70 18 14 57 39 85 55 29 17 77 49 108 71 32 23 86 54 122 69 36
15 97 43 135 63 39 20 85 42 104 48 19 7 37 16 40 21 9 13 92 68 131 88 19 10
97 56 172 102 198 123 344 263 272 263 -9 0 -70 -40 -137 -88 -230 -166 -383
-256 -701 -414 -65 -32 -138 -72 -162 -89 -23 -16 -47 -29 -52 -29 -6 0 -43
-22 -84 -48 -40 -27 -99 -65 -131 -85 -31 -21 -81 -59 -110 -85 -28 -26 -67
-58 -84 -70 -29 -20 -33 -21 -33 -6 0 56 79 251 121 299 9 11 25 40 34 65 9
25 21 54 25 65 5 11 14 37 20 58 6 20 23 45 36 55 13 9 61 46 107 82 45 36
100 74 122 84 22 10 81 49 130 86 50 37 113 79 140 94 28 14 97 60 155 102 58
41 139 93 182 114 42 22 102 61 135 87 32 27 78 63 103 82 65 49 168 190 154
212 -11 19 -43 8 -66 -23 -37 -49 -107 -116 -188 -177 -81 -62 -183 -131 -193
-131 -10 0 -210 -129 -352 -227 -167 -116 -315 -207 -322 -199 -8 8 32 96 75
163 18 29 37 64 42 78 5 14 32 62 59 108 37 61 62 89 96 111 25 15 50 36 55
46 11 21 200 188 243 215 18 10 100 73 184 140 83 66 170 132 193 148 22 15
45 40 51 55 6 15 23 41 38 57 15 17 38 45 50 62 12 18 42 56 67 85 85 100 162
228 136 228 -13 0 -226 -220 -242 -250 -31 -58 -122 -170 -156 -190 -20 -13
-62 -45 -93 -72 -31 -28 -92 -75 -136 -106 -100 -69 -181 -132 -220 -170 -36
-35 -125 -106 -125 -100 0 2 9 23 20 46 11 22 20 49 20 59 0 10 14 45 30 78
17 33 30 71 30 84 0 14 9 35 21 47 22 24 28 55 15 92 -6 19 4 33 67 97 86 86
216 230 234 260 7 11 20 34 29 50 9 17 34 51 55 76 21 25 54 74 73 108 31 55
65 101 152 208 30 38 46 117 22 112 -24 -6 -195 -209 -229 -272 -17 -32 -52
-84 -79 -115 -26 -32 -51 -68 -54 -80 -4 -13 -35 -56 -69 -97 -34 -41 -70 -85
-80 -99 -28 -41 -41 -33 -33 22 15 112 54 273 84 347 53 127 67 246 31 253
-12 2 -23 -22 -46 -105 -17 -59 -41 -129 -52 -155 -18 -42 -24 -48 -51 -48
-33 0 -38 -11 -15 -30 19 -16 19 -78 0 -127 -8 -21 -26 -80 -39 -132 -14 -51
-28 -96 -31 -99 -13 -13 -9 554 5 655 10 71 24 137 42 188 20 62 26 98 21 132
-7 44 -33 41 -46 -7 -5 -19 -12 -39 -16 -45 -4 -5 -13 -30 -20 -55 -7 -25 -19
-63 -27 -85 -7 -22 -18 -83 -23 -135 -12 -113 -16 -761 -6 -840 7 -56 0 -79
-71 -235 -7 -16 -22 -55 -33 -85 -23 -61 -59 -125 -67 -117 -13 13 -44 187
-58 327 -53 524 -54 605 -5 702 17 33 39 103 39 124 0 11 -6 29 -14 40 -13 17
-16 17 -29 4 -18 -18 -62 -167 -78 -264 -14 -83 -8 -248 20 -596 19 -234 27
-294 51 -388 7 -29 4 -39 -36 -92 -33 -44 -47 -73 -54 -113 -7 -47 -59 -160
-126 -274 -32 -55 -30 -60 -52 137 -5 47 -11 145 -12 219 -1 91 -8 163 -22
225 -23 102 -24 179 -7 595 6 144 6 248 1 253 -21 21 -39 -23 -50 -119 -37
-316 -40 -584 -9 -738 11 -51 17 -134 17 -230 1 -82 5 -186 11 -230 5 -44 12
-135 15 -202 8 -136 9 -132 -68 -225 -33 -40 -39 -54 -37 -85 1 -21 -5 -56
-15 -78 -10 -22 -38 -88 -63 -147 -25 -60 -49 -108 -53 -108 -12 0 -20 39 -20
98 0 29 -7 69 -16 90 -13 32 -33 243 -35 371 0 20 -2 88 -3 151 -2 63 -7 259
-11 435 -3 176 -8 330 -11 343 -3 17 -10 22 -27 20 -36 -5 -40 -70 -27 -533 6
-236 12 -441 12 -455 2 -79 20 -291 34 -390 45 -328 45 -337 -6 -395 -38 -44
-43 -68 -14 -79 21 -8 17 -52 -12 -109 -19 -38 -24 -60 -19 -84 8 -44 -10 -43
-25 1 -6 19 -19 45 -28 58 -10 13 -28 48 -41 78 -13 30 -36 82 -51 115 -16 33
-34 83 -40 110 -7 28 -23 88 -37 135 -20 72 -49 325 -45 400 13 236 14 287 2
355 -8 44 -20 81 -30 90 -16 14 -17 10 -24 -61 -10 -120 -7 -611 4 -689 6 -38
17 -92 25 -120 51 -180 73 -243 131 -369 36 -77 79 -173 95 -213 l30 -72 -25
-108 c-27 -117 -58 -205 -74 -211 -5 -1 -20 18 -32 44 -13 25 -38 68 -56 95
-18 27 -38 65 -45 86 -6 21 -20 50 -30 65 -11 14 -19 30 -19 35 0 4 -11 25
-24 44 -26 38 -45 86 -101 259 -19 58 -39 119 -46 135 -6 17 -15 59 -19 95 -5
36 -14 99 -21 140 -6 45 -8 103 -4 145 4 39 8 133 9 210 1 126 -1 140 -16 143
-11 2 -18 -3 -18 -11 0 -8 -7 -28 -15 -45 -11 -21 -19 -87 -26 -209 -10 -164
-9 -189 10 -308 11 -72 27 -152 35 -180 49 -169 77 -258 100 -315 46 -114 214
-443 261 -514 45 -66 46 -71 40 -120 -4 -28 -13 -67 -20 -86 -8 -19 -19 -65
-25 -102 -7 -37 -18 -72 -25 -78 -8 -6 -30 -8 -55 -4 l-43 7 -59 125 c-32 69
-72 143 -88 166 -16 23 -36 67 -45 99 -9 31 -36 97 -61 146 -24 49 -44 98 -44
109 0 10 -18 79 -40 153 -22 73 -43 158 -47 189 -3 30 -10 66 -15 79 -13 36
-38 9 -38 -44 0 -77 21 -209 45 -280 13 -38 31 -97 40 -130 9 -32 27 -80 40
-105 12 -25 28 -63 34 -85 18 -58 61 -146 86 -175 12 -14 46 -77 76 -140 54
-117 82 -160 106 -160 7 0 20 -11 29 -25 15 -22 15 -28 2 -57 -8 -18 -21 -47
-27 -65 -7 -17 -21 -39 -32 -49 -18 -16 -21 -15 -61 30 -22 26 -71 72 -108
101 -90 72 -158 141 -175 179 -22 49 -63 119 -73 125 -16 10 -59 103 -77 166
-9 32 -35 92 -57 132 -22 41 -48 104 -58 141 -10 37 -29 106 -43 154 -31 103
-61 370 -55 488 4 102 18 119 72 94 52 -25 64 -11 47 58 -8 29 -16 118 -18
198 -4 115 -2 156 11 199 9 30 16 73 16 95 0 23 9 68 19 101 11 33 26 87 33
119 18 81 35 90 81 40 30 -33 39 -37 54 -28 13 8 18 24 19 55 0 24 8 71 17
104 9 32 17 74 17 93 0 19 9 64 19 100 10 37 27 96 36 132 10 36 43 117 73
180 l55 115 16 -45 c9 -25 20 -51 24 -58 17 -25 42 6 61 75 24 85 38 105 152
223 58 60 95 107 101 127 6 25 27 44 102 95 133 89 132 89 183 131 26 21 59
42 75 46 37 10 41 41 9 76 -43 46 -32 65 51 90 66 20 169 87 245 161 35 33 78
70 96 83 17 12 52 48 77 79 62 78 56 72 121 117 91 64 97 71 91 119 -5 36 -1
49 34 102 33 51 46 63 74 68 19 4 38 13 42 20 5 7 18 18 29 24 12 6 52 36 89
67 37 30 73 55 79 55 7 0 17 5 23 11 6 6 47 25 90 43 86 35 229 124 307 194
56 49 66 45 66 -32z m-4993 -283 c16 -21 53 -72 81 -115 40 -59 48 -78 39 -87
-26 -21 -116 -33 -257 -34 -116 -1 -167 3 -253 22 -105 22 -137 22 -137 2 0
-13 73 -34 209 -61 115 -22 303 -27 409 -10 41 7 69 7 81 1 23 -13 53 -75 55
-114 l1 -29 -105 -2 c-89 -2 -119 -7 -197 -34 -165 -56 -332 -83 -526 -85
-157 -2 -172 0 -175 16 -2 10 11 30 32 49 20 17 36 39 36 48 0 9 -15 31 -34
49 -34 33 -36 34 -103 27 -247 -23 -341 -26 -435 -15 -53 7 -102 15 -108 19
-7 4 -5 17 6 39 18 36 13 61 -14 67 -9 3 -24 18 -33 33 -16 27 -19 28 -125 34
-143 8 -428 82 -473 123 -19 17 -7 42 26 55 21 8 44 5 108 -13 75 -22 97 -23
350 -22 149 0 308 6 355 12 176 24 432 42 625 43 110 1 252 5 315 9 227 13
213 15 247 -27z m2917 -1338 c-9 -14 -23 -29 -31 -34 -18 -9 -84 10 -80 24 4
11 71 33 105 34 22 1 22 0 6 -24z m-104 -151 c0 -8 -5 -12 -10 -9 -6 4 -8 11
-5 16 9 14 15 11 15 -7z m-107 -56 c-6 -7 -21 -38 -34 -68 -12 -30 -31 -67
-41 -81 -24 -36 -71 -180 -103 -319 -39 -165 -45 -190 -49 -190 -2 0 -13 16
-25 35 -37 64 -62 42 -111 -95 -68 -193 -101 -387 -101 -600 l-1 -159 -24 10
c-14 5 -27 9 -29 9 -13 0 -25 -49 -41 -155 -15 -104 -15 -136 -5 -249 20 -215
32 -298 52 -351 11 -27 29 -93 40 -145 13 -60 39 -132 69 -195 27 -55 58 -129
70 -165 50 -157 173 -320 323 -428 27 -19 57 -53 69 -76 11 -22 38 -57 60 -76
l39 -36 -15 -59 c-9 -33 -20 -111 -26 -172 -6 -62 -14 -123 -19 -136 -5 -13
-12 -53 -16 -90 -4 -37 -12 -67 -17 -67 -11 0 -38 62 -38 86 0 19 -76 145
-136 224 -45 60 -140 213 -186 300 -16 30 -49 75 -73 100 -24 25 -59 70 -77
101 -37 62 -66 108 -152 242 -33 51 -67 114 -77 141 -10 27 -29 61 -43 75 -13
14 -27 37 -31 51 -4 14 -25 59 -46 100 -20 41 -81 165 -134 275 -54 110 -108
215 -122 233 -13 17 -21 36 -18 42 3 5 -3 27 -14 49 -33 64 -79 198 -86 249
-4 26 -11 58 -16 72 -11 31 -32 174 -64 435 -13 110 -34 270 -45 355 -12 87
-19 175 -15 200 3 25 9 90 14 145 9 103 25 180 40 189 5 3 11 20 15 38 3 17
13 42 21 55 13 20 21 22 63 16 26 -3 74 -17 107 -31 54 -23 76 -26 230 -30
320 -9 314 -10 465 43 74 26 165 58 201 71 37 12 84 31 105 42 40 21 67 15 47
-10z m-1393 -118 c0 -5 -2 -10 -4 -10 -3 0 -8 5 -11 10 -3 6 -1 10 4 10 6 0
11 -4 11 -10z m-5 -172 c-12 -198 -9 -369 8 -503 10 -71 18 -166 20 -210 2
-73 0 -80 -18 -83 -19 -3 -20 4 -23 175 -2 104 -8 185 -14 197 -15 28 -21 111
-22 301 0 130 3 167 17 198 31 67 40 46 32 -75z m-2165 -968 c12 -8 11 -10 -7
-10 -12 0 -25 5 -28 10 -8 13 15 13 35 0z m295 -11 c188 -24 300 -62 552 -187
26 -13 35 -14 45 -4 9 9 7 27 -11 83 -15 46 -19 75 -13 81 16 16 99 -15 191
-71 112 -68 140 -90 243 -193 86 -86 89 -88 136 -88 59 0 113 -31 150 -87 39
-58 132 -172 166 -202 63 -57 96 -96 94 -112 -2 -9 14 -39 35 -65 69 -91 138
-184 134 -184 -2 0 -29 9 -59 19 -31 10 -81 24 -112 31 -70 14 -82 30 -22 30
33 0 46 4 46 14 0 15 -127 117 -181 146 -15 8 -57 32 -92 53 -111 63 -134 46
-48 -37 l60 -56 -38 0 c-66 0 -150 29 -249 86 -53 31 -106 64 -118 75 -30 28
-268 171 -389 234 -33 18 -73 39 -90 48 -212 111 -335 153 -335 113 0 -19 20
-33 71 -51 24 -9 62 -24 84 -34 22 -11 83 -38 135 -62 52 -23 130 -65 172 -93
42 -28 160 -105 262 -171 101 -66 185 -123 185 -126 1 -7 -151 -29 -251 -36
-88 -6 -157 14 -239 70 -110 74 -210 124 -319 157 -58 18 -109 36 -115 40 -5
4 -41 19 -80 33 -38 14 -112 44 -163 66 -51 23 -98 41 -106 41 -7 0 -57 18
-112 40 -101 41 -147 47 -152 20 -2 -11 21 -26 72 -48 42 -17 80 -32 85 -32 6
0 25 -6 43 -14 18 -8 65 -27 103 -42 39 -15 93 -38 122 -51 29 -13 105 -42
170 -64 65 -23 122 -45 128 -50 5 -5 16 -9 25 -9 52 0 275 -145 248 -161 -14
-9 -91 -21 -248 -40 -58 -7 -116 -19 -130 -26 -35 -18 -115 -16 -175 4 -27 9
-104 42 -170 74 -66 32 -147 67 -180 77 -33 11 -91 34 -129 51 -76 35 -300
102 -416 124 -41 9 -101 25 -132 36 -86 31 -175 24 -140 -11 8 -8 246 -74 482
-133 64 -16 179 -59 232 -87 20 -10 61 -27 90 -38 29 -10 100 -39 158 -64 176
-77 177 -79 100 -95 -28 -6 -66 -17 -84 -25 -19 -8 -68 -24 -110 -35 -41 -11
-108 -36 -150 -56 -41 -19 -80 -35 -86 -35 -6 0 -97 30 -203 66 -106 37 -253
79 -327 95 -131 28 -190 44 -220 63 -15 11 -76 23 -155 33 -27 3 -56 10 -62
15 -7 6 -39 14 -70 19 -32 4 -87 15 -123 23 -65 16 -204 21 -234 10 -30 -11
-16 -22 37 -29 28 -3 79 -12 112 -20 33 -8 107 -22 165 -31 102 -16 137 -24
395 -93 209 -56 527 -158 553 -177 27 -20 3 -37 -209 -143 l-200 -101 -37 18
c-36 18 -155 48 -282 72 -36 7 -78 18 -95 25 -29 13 -71 19 -370 51 -82 9
-190 22 -240 30 -125 19 -168 18 -189 -5 -28 -31 -14 -35 274 -61 334 -30 545
-65 712 -116 46 -14 95 -28 111 -31 37 -7 43 -21 15 -32 -13 -5 -68 -39 -123
-75 -126 -84 -190 -114 -246 -117 -42 -2 -195 13 -309 30 -134 20 -340 52
-391 61 -108 19 -211 6 -245 -31 -30 -33 -5 -44 66 -29 34 7 83 10 113 7 260
-30 324 -38 337 -42 8 -2 76 -13 150 -24 144 -21 199 -36 184 -51 -5 -5 -58
-39 -118 -75 -216 -131 -251 -143 -364 -121 -145 28 -307 47 -452 53 -167 7
-303 -3 -297 -20 2 -8 58 -15 168 -20 142 -6 289 -22 533 -57 70 -10 90 -25
61 -46 -38 -28 -360 -182 -418 -200 -72 -21 -161 -73 -165 -97 -3 -14 4 -17
32 -17 20 0 44 4 54 9 83 43 292 118 292 104 0 -2 -14 -29 -32 -60 -19 -34
-89 -115 -172 -200 l-141 -144 -305 7 c-168 4 -315 11 -327 15 -13 5 -23 17
-23 27 0 23 45 117 76 157 32 42 91 191 99 251 7 48 79 188 110 214 18 15 19
44 2 58 -7 6 -34 16 -60 22 -26 7 -50 17 -53 22 -3 5 22 46 56 90 35 44 87
113 116 153 54 72 110 117 285 233 104 69 111 77 106 122 -7 61 -10 63 -97 55
-78 -7 -120 -2 -120 15 0 18 166 150 209 166 25 9 87 35 136 57 128 58 251 86
316 73 37 -8 52 -7 62 3 10 10 6 17 -18 37 -16 13 -46 29 -65 35 -19 7 -40 15
-45 20 -6 4 -43 15 -83 24 -39 9 -72 21 -72 26 0 11 70 43 132 59 24 7 54 18
68 25 42 21 122 43 180 49 30 3 123 24 205 47 87 23 162 39 180 36 37 -5 166
10 177 21 12 12 -29 46 -102 84 -80 42 -140 81 -140 90 0 12 70 39 130 49 30
6 89 16 130 24 127 23 287 37 342 30 29 -4 91 -13 137 -21 113 -19 210 -19
217 1 12 31 -11 68 -52 82 -21 7 -66 38 -99 68 l-60 54 220 -5 c272 -6 362
-16 494 -55 60 -18 114 -28 127 -25 15 4 39 -1 64 -14 49 -25 70 -25 70 -1 0
18 -26 44 -104 104 -20 15 -36 31 -36 35 0 9 52 6 165 -9z m1360 -925 c48 -6
49 -7 20 -15 -28 -8 -61 -6 -109 8 -15 4 -16 7 -5 14 8 5 21 7 29 5 8 -3 38
-8 65 -12z m-959 -61 c10 -37 -29 -264 -60 -353 -14 -40 -26 -86 -26 -102 0
-35 -52 -174 -92 -244 -15 -28 -48 -113 -73 -189 l-45 -137 -101 -106 c-104
-109 -137 -158 -125 -187 8 -22 24 -10 101 76 124 136 155 175 176 219 12 25
30 62 40 82 11 20 19 43 19 50 0 7 20 58 45 112 25 55 45 104 45 110 0 6 7 24
15 39 13 25 34 100 116 412 11 39 22 103 25 142 4 42 13 78 21 84 10 9 48 9
151 -1 75 -7 173 -14 217 -16 44 -2 86 -6 93 -9 15 -5 16 -47 2 -61 -6 -6 -26
-55 -44 -110 -19 -54 -54 -148 -80 -209 -25 -60 -46 -115 -46 -122 0 -30 -97
-201 -153 -271 -223 -282 -387 -503 -387 -521 0 -6 7 -11 16 -11 20 0 75 58
119 125 18 28 52 68 75 90 23 22 67 73 99 114 31 41 67 88 81 106 112 144 143
191 176 265 36 84 101 256 111 295 3 11 13 38 23 60 10 22 28 65 40 95 58 143
63 146 247 137 68 -3 127 -8 131 -11 11 -6 -72 -258 -126 -382 -65 -151 -148
-279 -284 -437 -116 -135 -148 -187 -117 -187 18 0 185 168 236 237 25 35 49
63 53 63 3 0 17 19 29 43 13 23 36 65 51 92 49 87 89 169 96 200 4 17 16 48
26 69 11 22 36 82 55 135 42 116 54 131 105 131 44 0 194 -75 203 -101 3 -9 1
-34 -5 -55 -62 -238 -71 -266 -111 -351 -27 -56 -34 -64 -69 -73 -44 -12 -73
-43 -91 -98 -30 -93 -173 -287 -277 -376 -31 -27 -67 -64 -80 -82 -22 -33
-108 -84 -163 -97 -26 -7 -26 -6 -25 50 1 71 -13 77 -76 34 -38 -26 -75 -71
-131 -163 -28 -46 -210 -200 -297 -252 -115 -68 -157 -84 -175 -65 -11 11 -13
22 -6 46 7 25 6 33 -6 37 -51 20 -136 -14 -183 -73 -71 -88 -300 -220 -500
-289 -123 -42 -260 -63 -260 -40 0 37 121 148 160 148 23 0 40 20 40 47 0 31
-26 30 -81 -2 -70 -41 -71 -42 -129 -71 -30 -15 -75 -38 -100 -50 -25 -13 -80
-32 -122 -44 -42 -11 -114 -34 -160 -51 -124 -46 -309 -83 -308 -61 0 4 12 25
25 47 28 45 32 70 11 78 -20 8 -137 -10 -183 -27 -30 -12 -333 -41 -403 -39
-46 2 -189 21 -200 28 -8 5 4 23 38 59 46 46 72 89 72 117 0 5 -11 21 -25 35
-23 23 -26 24 -54 10 -49 -26 -203 -39 -376 -32 -174 7 -218 14 -223 38 -3 15
62 81 88 90 8 2 15 19 16 37 2 28 23 54 137 166 75 73 146 148 159 167 131
195 186 253 283 300 112 55 189 102 238 143 46 40 83 53 99 37 12 -12 5 -27
-106 -237 -169 -318 -250 -432 -358 -502 -54 -35 -68 -49 -68 -68 0 -38 39
-32 97 13 95 76 188 187 265 319 100 170 226 409 248 468 27 72 35 80 205 180
183 108 201 116 215 107 25 -15 23 -36 -11 -103 -17 -35 -39 -93 -49 -129 -38
-137 -132 -359 -174 -410 -17 -21 -49 -77 -114 -200 -78 -149 -131 -227 -217
-319 -41 -44 -75 -85 -75 -91 0 -24 45 -6 91 37 90 84 159 183 237 338 9 17
25 44 38 60 12 17 50 84 84 150 34 66 70 134 81 151 26 42 76 164 107 258 14
44 40 104 59 135 36 60 73 151 73 181 0 29 45 75 87 88 21 6 64 27 97 47 32
19 62 35 67 35 5 0 48 22 95 49 75 44 153 71 200 71 8 0 17 7 21 15 8 21 47
40 123 60 36 9 76 23 90 30 66 34 81 37 132 32 36 -3 58 -1 68 8 8 8 42 20 75
28 33 8 80 22 105 30 60 21 208 41 256 35 22 -3 55 1 74 8 48 17 49 17 56 -13z
m5434 15 c0 -2 5 -30 11 -63 5 -33 13 -213 18 -400 6 -280 10 -347 24 -378 9
-20 16 -41 17 -45 1 -24 54 -113 75 -126 46 -30 37 -62 -65 -235 -9 -14 -17
-37 -18 -51 -2 -29 -41 -144 -72 -213 -15 -33 -27 -47 -38 -45 -19 4 -71 76
-72 99 0 9 -9 36 -19 60 -11 24 -26 89 -35 144 -8 55 -26 145 -41 200 -25 94
-26 109 -20 247 3 81 13 173 20 203 8 31 15 80 15 110 0 30 7 72 16 94 18 45
16 76 -5 76 -21 0 -51 -96 -61 -192 -5 -45 -13 -90 -18 -100 -13 -25 -31 -157
-38 -283 -4 -73 -1 -128 9 -180 62 -313 88 -421 119 -482 10 -21 36 -50 58
-64 33 -22 40 -32 40 -59 0 -35 -34 -151 -50 -170 -5 -7 -14 -52 -19 -101 -10
-94 -44 -216 -85 -312 -14 -31 -28 -68 -32 -82 -3 -14 -22 -65 -41 -114 -19
-49 -42 -121 -52 -160 -18 -72 -65 -176 -79 -176 -19 0 -30 25 -25 55 4 24 0
36 -14 46 -32 24 -101 142 -114 194 -6 28 -16 61 -21 75 -6 14 -17 72 -25 130
-8 58 -18 130 -23 160 -38 250 -55 382 -66 512 -11 147 -64 142 -64 -6 0 -115
29 -391 66 -622 8 -50 14 -107 14 -127 0 -46 40 -194 75 -277 16 -39 42 -79
65 -100 24 -22 51 -65 74 -117 44 -100 47 -169 16 -342 -20 -107 -20 -119 -5
-279 8 -92 17 -178 20 -192 4 -19 1 -17 -10 8 -9 19 -23 72 -31 120 -8 47 -19
91 -23 96 -5 6 -18 67 -30 136 -30 170 -42 202 -104 274 -112 127 -185 234
-227 329 -24 54 -49 102 -56 108 -8 6 -14 18 -14 25 0 8 -5 14 -11 14 -7 0 -9
9 -6 22 4 12 -3 53 -15 92 -71 241 -82 323 -73 506 3 74 9 143 12 153 5 17 7
17 31 -6 33 -31 100 -67 125 -67 17 0 18 10 12 178 -5 165 -30 528 -41 598 -6
44 -28 60 -59 46 -24 -11 -25 -15 -24 -99 0 -49 4 -119 9 -158 16 -122 40
-339 40 -367 0 -37 -19 -36 -55 2 -29 30 -68 39 -80 20 -11 -17 -29 -174 -43
-370 -9 -126 -8 -134 53 -370 24 -94 35 -156 31 -178 -4 -26 0 -39 16 -55 30
-33 62 -86 82 -140 10 -27 39 -77 65 -110 25 -34 52 -74 59 -88 8 -14 43 -59
78 -100 84 -96 102 -132 114 -227 9 -72 14 -98 25 -147 21 -91 34 -149 44
-205 6 -36 25 -105 41 -155 16 -49 45 -141 65 -204 20 -63 45 -126 55 -139 21
-26 45 -91 37 -99 -8 -8 -74 35 -91 59 -8 11 -28 29 -45 41 -40 28 -208 210
-291 316 -36 45 -98 119 -138 164 -78 89 -117 137 -190 237 -26 35 -85 96
-132 136 -73 62 -93 85 -140 170 -37 66 -86 132 -151 204 -53 58 -103 119
-112 136 -8 16 -44 61 -79 99 -76 83 -128 153 -188 255 -24 41 -54 89 -66 105
-12 17 -27 46 -33 66 -6 20 -23 47 -36 59 -14 13 -25 31 -25 40 0 10 -15 48
-33 86 -19 38 -39 93 -46 122 -6 30 -22 81 -35 115 -22 58 -53 199 -64 292 -7
62 -4 143 9 223 11 65 16 76 52 108 34 31 45 36 76 31 20 -3 90 -13 156 -23
133 -20 112 -22 380 41 33 8 98 19 144 25 46 6 93 17 105 25 11 7 48 21 81 30
33 9 69 25 80 34 11 10 56 32 100 50 l80 32 30 -35 c37 -43 132 -88 177 -84
33 3 33 4 32 53 0 28 -7 76 -15 109 l-14 58 31 27 c90 77 133 111 140 111 3 0
4 -37 1 -82 -3 -46 1 -132 8 -193 27 -216 37 -353 30 -406 -4 -32 -1 -101 8
-169 9 -63 18 -142 22 -175 8 -72 59 -229 89 -269 11 -17 37 -59 56 -95 28
-54 44 -71 82 -91 l47 -25 25 24 26 25 -30 25 c-25 22 -50 62 -125 201 -60
110 -88 217 -104 385 -17 182 -31 387 -31 445 0 30 -7 84 -16 120 -11 45 -16
107 -15 206 2 154 -7 191 -46 201 -19 4 -33 -3 -63 -32 -26 -26 -44 -36 -55
-31 -26 10 -4 31 82 78 152 83 340 249 462 408 110 143 142 180 156 180 8 0
15 -1 15 -2z m-3955 -118 c70 -33 124 -64 121 -69 -10 -15 -74 7 -146 50 -67
40 -120 78 -108 79 4 0 64 -27 133 -60z m202 -91 c15 -5 65 -35 110 -66 62
-42 95 -72 128 -120 50 -71 56 -86 23 -57 -13 11 -36 29 -53 39 -16 10 -59 46
-95 80 -36 34 -89 77 -117 95 -29 18 -53 35 -53 37 0 6 30 3 57 -8z m2888
-767 c-3 -3 -15 4 -27 16 -18 18 -19 23 -8 37 12 14 15 13 27 -16 7 -18 11
-34 8 -37z m-1453 -201 c-13 -46 -33 -230 -33 -304 0 -133 34 -301 83 -406 16
-35 34 -91 39 -124 6 -33 13 -65 16 -70 6 -11 53 -228 60 -277 l4 -35 -40 43
c-32 35 -41 53 -51 109 -6 37 -25 102 -41 145 -84 225 -96 261 -119 368 -25
115 -28 135 -20 145 4 6 10 35 13 65 8 95 58 353 75 390 15 33 16 34 20 11 2
-14 -1 -41 -6 -60z m537 -2381 c84 -5 157 -12 161 -15 5 -3 77 -21 161 -41 83
-19 163 -40 178 -48 14 -7 44 -19 66 -26 81 -26 129 -50 118 -61 -7 -7 -19 -5
-39 5 -16 9 -63 25 -104 36 -41 12 -88 27 -105 35 -16 8 -59 16 -95 19 -36 2
-123 18 -195 35 -108 26 -149 31 -240 30 -102 -1 -110 0 -107 17 6 30 23 46
36 34 7 -5 81 -14 165 -20z m1545 -727 c13 -27 54 -93 90 -147 43 -65 74 -123
87 -168 31 -101 16 -107 -64 -27 -97 97 -128 145 -126 193 1 23 -4 68 -10 101
-20 108 -14 120 23 48z"/>
<path d="M585 4980 c3 -5 10 -10 16 -10 5 0 9 5 9 10 0 6 -7 10 -16 10 -8 0
-12 -4 -9 -10z"/>
<path d="M3462 5753 c-27 -11 -32 -40 -13 -83 17 -38 17 -47 4 -128 -7 -48
-21 -114 -30 -147 -9 -33 -18 -78 -20 -100 -10 -92 -84 -318 -113 -345 -7 -6
-70 -166 -70 -178 0 -4 -16 -34 -35 -66 -19 -32 -35 -67 -35 -78 0 -26 -16
-55 -56 -102 -18 -21 -39 -55 -45 -75 -6 -20 -17 -45 -24 -56 -6 -11 -18 -37
-25 -59 -7 -21 -35 -72 -64 -115 -72 -107 -93 -148 -80 -161 6 -6 17 -8 25 -5
23 9 138 186 158 245 11 30 40 92 65 138 25 45 46 87 46 92 0 5 22 42 49 82
28 42 71 130 102 208 29 74 58 142 65 150 26 32 96 248 110 340 8 52 23 131
34 174 23 90 26 209 7 246 -13 25 -31 33 -55 23z"/>
<path d="M2946 5574 c-3 -9 -6 -35 -6 -59 0 -23 -9 -71 -20 -106 -10 -35 -28
-102 -40 -149 -11 -47 -36 -130 -56 -185 -19 -55 -44 -129 -56 -165 -20 -68
-45 -124 -77 -175 -10 -16 -62 -106 -116 -200 -54 -93 -118 -203 -142 -243
-44 -72 -66 -142 -45 -142 21 0 82 87 135 191 19 37 43 80 54 95 11 16 44 74
73 129 30 55 63 116 75 135 12 19 26 46 30 60 4 14 15 36 25 50 18 26 56 132
85 235 9 33 25 80 36 105 10 25 32 99 49 165 16 66 37 144 45 173 10 36 11 61
5 77 -11 28 -45 34 -54 9z"/>
<path d="M3180 12020 c0 -5 5 -10 11 -10 5 0 7 5 4 10 -3 6 -8 10 -11 10 -2 0
-4 -4 -4 -10z"/>
<path d="M5700 10300 c-16 -30 -25 -136 -11 -144 17 -11 41 55 41 114 0 52
-12 64 -30 30z"/>
<path d="M11707 6724 c-11 -12 3 -24 29 -24 16 0 24 5 22 13 -5 13 -40 22 -51
11z"/>
<path d="M5148 3633 c-25 -6 -23 -13 18 -83 20 -33 34 -63 30 -67 -3 -3 -36
-1 -73 5 -38 6 -161 14 -274 17 -114 4 -223 10 -243 15 -22 5 -38 4 -42 -2 -4
-6 -33 -7 -73 -4 -82 8 -105 -3 -64 -31 15 -11 47 -30 70 -42 83 -42 62 -53
-33 -17 -34 12 -58 13 -140 5 -132 -13 -190 -30 -309 -93 -55 -29 -125 -61
-155 -70 -92 -31 -98 -34 -112 -63 -9 -20 -22 -29 -43 -31 -56 -7 -291 -163
-332 -222 -13 -18 -12 -20 6 -20 25 0 81 -32 81 -47 0 -16 -59 -49 -103 -57
-39 -7 -94 -45 -195 -135 -52 -47 -68 -56 -99 -56 -60 0 -55 -28 11 -66 50
-27 71 -49 48 -49 -4 0 -44 -23 -87 -51 -44 -27 -93 -57 -110 -65 -55 -26
-171 -131 -190 -169 -17 -36 -17 -40 0 -68 19 -33 13 -42 -35 -53 -14 -3 -38
-11 -55 -18 -40 -18 -205 -163 -205 -181 0 -8 18 -28 40 -46 21 -17 62 -62 90
-100 46 -62 111 -118 205 -176 20 -13 41 -23 46 -23 23 0 5 -19 -40 -39 -69
-33 -106 -64 -98 -84 4 -10 17 -17 32 -17 14 0 25 -4 25 -9 0 -4 21 -18 48
-29 26 -11 89 -59 142 -107 52 -47 125 -112 162 -143 37 -31 63 -61 59 -65 -5
-5 -34 -11 -65 -14 -72 -7 -87 -23 -52 -58 14 -14 36 -25 49 -25 16 0 43 -18
78 -53 73 -72 171 -140 266 -184 43 -19 97 -49 120 -65 34 -23 62 -31 133 -41
84 -11 117 -28 70 -35 -39 -6 -14 -56 35 -68 16 -4 30 1 44 15 12 12 27 21 35
21 7 0 19 7 26 15 7 8 19 15 27 15 31 0 73 40 73 70 0 39 -26 52 -83 41 -79
-14 -265 19 -378 67 -53 23 -103 42 -112 42 -25 0 -94 44 -162 104 -36 32 -65
61 -65 65 0 6 58 27 140 49 19 6 26 15 28 39 3 31 2 32 -45 38 -82 11 -107 23
-173 85 -36 33 -109 92 -162 132 -53 40 -102 83 -109 95 -7 13 -20 25 -31 29
-45 14 1 37 99 49 29 4 56 11 59 16 3 5 -6 29 -20 53 -22 37 -32 45 -66 51
-21 4 -83 28 -137 55 -80 39 -115 64 -187 134 -84 80 -88 87 -73 103 26 29
120 82 199 113 176 68 193 77 196 106 4 33 -29 63 -70 64 -16 0 -28 4 -28 8 0
21 159 136 213 154 18 7 39 21 49 33 22 28 108 74 147 78 41 5 53 18 49 53 -2
23 -12 33 -45 49 -24 11 -43 22 -43 26 0 3 33 35 73 71 72 65 123 98 150 98 8
0 41 12 73 27 33 15 82 30 109 33 48 5 50 6 50 35 0 24 -6 31 -35 41 -19 7
-52 15 -72 19 -47 7 -52 37 -10 59 16 8 35 22 42 31 19 23 114 69 180 88 77
22 246 40 302 33 38 -5 49 -3 56 11 15 26 -6 63 -35 63 -38 0 -65 18 -55 36
29 52 230 114 381 117 84 2 88 1 188 -47 130 -62 136 -60 132 42 l-4 77 80 -1
c239 -5 277 -10 385 -47 76 -26 108 -33 117 -25 16 13 17 59 1 109 -6 22 -9
41 -7 43 2 2 66 0 142 -5 145 -9 262 -34 329 -71 42 -24 88 -18 88 10 0 63
-146 110 -426 137 -87 8 -161 21 -195 34 -30 12 -54 20 -54 20 0 -1 -8 -3 -17
-6z"/>
<path d="M10890 3490 c0 -5 5 -10 10 -10 6 0 10 5 10 10 0 6 -4 10 -10 10 -5
0 -10 -4 -10 -10z"/>
<path d="M5783 2327 c-16 -18 -37 -60 -47 -93 -10 -32 -22 -63 -26 -69 -5 -5
-13 -28 -19 -50 -6 -22 -26 -65 -46 -95 -30 -47 -65 -133 -65 -162 0 -4 -33
-70 -74 -146 -41 -75 -84 -171 -97 -212 -12 -41 -29 -91 -37 -110 -9 -19 -26
-64 -38 -100 l-23 -65 -71 -6 c-78 -6 -119 -31 -106 -65 5 -14 15 -16 61 -11
70 7 70 1 8 -107 -25 -44 -60 -106 -76 -136 -42 -77 -57 -93 -74 -78 -18 14
-70 -1 -180 -53 -87 -41 -118 -73 -84 -84 28 -9 105 12 173 46 33 17 62 29 64
27 6 -7 -92 -166 -133 -216 -22 -26 -53 -67 -70 -92 -17 -25 -63 -72 -101
-105 -70 -60 -89 -85 -77 -105 17 -27 191 108 263 205 l23 30 -6 -40 c-16
-127 -17 -181 -2 -193 8 -7 22 -9 31 -6 14 6 16 15 11 53 -5 35 -1 57 15 94
12 26 25 85 30 130 11 104 18 121 75 182 26 28 64 84 85 125 37 73 38 74 45
45 4 -16 13 -55 21 -86 8 -31 14 -68 14 -82 0 -39 21 -77 42 -77 21 0 25 41 7
87 -6 15 -15 69 -20 118 -6 50 -17 101 -26 114 -14 22 -13 26 16 65 45 59 98
164 122 243 12 37 32 91 45 118 13 28 24 56 24 63 0 25 60 179 95 247 64 120
75 144 75 157 0 24 37 120 74 193 20 39 36 78 36 87 0 9 4 19 9 22 5 3 14 27
20 53 7 27 24 72 38 101 33 67 20 89 -24 39z"/>
<path d="M4418 2230 c-65 -20 -189 -134 -251 -231 -15 -24 -48 -69 -73 -99
-25 -30 -75 -93 -112 -140 -106 -134 -307 -334 -418 -415 l-101 -74 -132 -7
c-140 -7 -161 -18 -100 -50 26 -13 50 -15 138 -9 58 4 115 12 126 18 37 19
109 80 180 152 39 39 118 108 177 153 59 46 121 102 139 125 18 23 54 66 80
94 26 29 78 97 115 150 37 54 87 120 111 147 24 26 43 52 43 57 0 5 26 22 58
38 66 33 85 52 80 78 -4 21 -22 25 -60 13z"/>
<path d="M5298 2188 c-21 -24 -61 -88 -89 -143 -28 -55 -54 -104 -59 -110 -4
-5 -11 -21 -15 -35 -4 -13 -16 -36 -26 -50 -10 -14 -27 -56 -39 -95 -11 -38
-34 -99 -51 -135 -17 -36 -36 -76 -42 -90 -6 -14 -28 -49 -49 -79 -21 -30 -38
-61 -38 -68 0 -8 -13 -33 -28 -56 -16 -23 -46 -68 -68 -101 -21 -32 -57 -79
-79 -104 -22 -25 -65 -80 -95 -123 -126 -177 -266 -329 -301 -329 -5 0 -31
-14 -59 -31 -61 -37 -69 -69 -17 -69 17 0 41 7 51 15 11 8 26 15 34 15 16 0
182 129 182 142 0 4 30 41 67 80 36 40 88 107 114 148 26 41 61 91 77 110 45
54 102 136 102 147 0 6 14 24 30 41 17 18 30 39 30 48 0 17 40 90 76 139 29
40 84 151 84 169 0 22 68 186 148 356 9 19 35 63 59 97 24 34 43 66 43 71 0 5
7 15 15 22 20 17 20 60 -1 60 -9 0 -34 -19 -56 -42z"/>
<path d="M3815 2025 c-16 -13 -46 -27 -65 -31 -21 -4 -59 -27 -95 -58 -33 -29
-89 -74 -125 -101 -36 -26 -81 -61 -100 -76 -19 -15 -55 -38 -80 -50 -111 -56
-299 -231 -269 -250 20 -12 69 12 97 48 22 28 76 70 146 115 6 4 45 23 87 43
42 20 102 58 135 86 69 59 193 146 247 173 46 24 97 79 97 106 0 28 -38 26
-75 -5z"/>
<path d="M4652 2010 c-13 -17 -30 -49 -38 -72 -20 -59 -72 -148 -143 -248 -33
-47 -86 -127 -117 -179 -31 -52 -73 -111 -93 -130 -20 -20 -79 -88 -131 -151
-174 -211 -291 -306 -436 -354 -52 -17 -93 -41 -84 -49 9 -8 163 21 205 38 63
27 155 97 227 173 70 75 78 75 78 6 0 -19 4 -34 8 -34 21 0 52 48 52 81 2 92
14 116 102 204 47 47 90 85 97 85 6 0 11 -17 11 -40 0 -26 5 -40 13 -40 30 0
37 25 37 131 l0 107 35 43 c20 23 41 51 47 63 6 12 25 39 43 61 31 39 118 210
135 267 6 20 4 33 -8 48 l-17 21 -23 -31z"/>
<path d="M4406 1251 c-4 -7 -5 -15 -2 -18 9 -9 19 4 14 18 -4 11 -6 11 -12 0z"/>
<path d="M3710 1110 c0 -15 27 -23 47 -16 15 6 15 8 3 16 -20 13 -50 12 -50 0z"/>
<path d="M3850 1086 c0 -17 30 -40 68 -51 15 -4 22 -2 22 8 0 19 -30 44 -62
52 -22 6 -28 4 -28 -9z"/>
<path d="M3856 504 c-15 -38 79 -95 204 -124 52 -12 115 -29 140 -36 25 -8 74
-18 110 -21 84 -7 99 -15 93 -48 -3 -14 0 -32 7 -40 7 -8 10 -26 6 -39 -10
-41 20 -65 99 -76 113 -16 436 -13 540 6 117 20 153 38 185 93 14 25 31 46 38
49 22 7 12 -32 -18 -72 -41 -54 -47 -94 -20 -145 11 -23 28 -45 37 -48 19 -7
79 23 151 75 107 78 312 181 363 182 9 0 22 -13 29 -30 14 -34 18 -35 47 -15
25 17 48 82 62 175 9 53 8 68 -4 87 -19 29 -41 29 -56 1 -7 -13 -33 -47 -58
-76 -38 -44 -68 -64 -169 -115 -217 -110 -238 -122 -286 -160 -25 -21 -46 -34
-46 -28 0 6 4 11 9 11 13 0 63 162 59 190 -2 14 -21 36 -51 57 l-48 34 -37
-40 c-20 -21 -53 -57 -72 -79 -34 -38 -38 -40 -142 -56 -141 -21 -495 -23
-523 -2 -18 13 -17 16 22 67 22 30 48 69 58 87 15 32 15 35 -1 53 -22 24 -27
24 -73 -6 -21 -14 -44 -23 -52 -20 -8 3 -63 10 -124 15 -210 20 -246 26 -253
37 -9 14 -62 20 -79 10 -13 -8 -63 12 -63 24 0 9 -53 39 -68 39 -6 0 -13 -7
-16 -16z"/>
<path d="M5466 449 c-9 -49 -7 -69 8 -69 10 0 13 13 12 45 -3 55 -11 66 -20
24z"/>
</g>
</svg>
